<?xml version="1.0" standalone="no"?>
<!DOCTYPE svg PUBLIC "-//W3C//DTD SVG 1.1//EN" "http://www.w3.org/Graphics/SVG/1.1/DTD/svg11.dtd" >
<svg>
<metadata>
Created by FontForge 20120731 at Thu Feb  6 00:27:47 2020
 By www
More KeyFonts TM SoftKey Software Products, Inc.  Copyright (c)1993 W.S.I.  All Rights Reserved.  Redistribution strictly prohibited.  RWE
</metadata>
<defs>
<font id="BookplateItalic" horiz-adv-x="613" >
  <font-face 
    font-family="Bookplate"
    font-weight="5"
    font-style="italic"
    font-stretch="normal"
    units-per-em="1000"
    panose-1="0 0 0 0 0 0 0 0 0 0"
    ascent="800"
    descent="-200"
    x-height="482"
    cap-height="677"
    bbox="-209 -228 1196 804"
    underline-thickness="50"
    underline-position="-75"
    slope="-12"
    unicode-range="U+0020-F002"
  />
<missing-glyph horiz-adv-x="800" 
d="M50 0v800h700v-800h-700zM700 50v700h-600v-700h600z" />
    <glyph glyph-name=".notdef" horiz-adv-x="800" 
d="M50 0v800h700v-800h-700zM700 50v700h-600v-700h600z" />
    <glyph glyph-name=".null" horiz-adv-x="0" 
 />
    <glyph glyph-name="nonmarkingreturn" horiz-adv-x="299" 
 />
    <glyph glyph-name="space" unicode=" " horiz-adv-x="299" 
 />
    <glyph glyph-name="exclam" unicode="!" horiz-adv-x="315" 
d="M346 614q0 -30 -29.5 -110.5t-58.5 -160.5q-35 -104 -45 -172h-40q0 193 9 300q0 6 15 120q5 49 30.5 75.5t54.5 26.5q30 0 47 -24t17 -55zM242 73q0 -31 -24 -56t-61 -25q-21 0 -37.5 18.5t-16.5 40.5q0 31 22.5 56t55.5 25q28 0 44.5 -17.5t16.5 -41.5z" />
    <glyph glyph-name="quotedbl" unicode="&#x22;" horiz-adv-x="354" 
d="M415 638q0 -11 -7 -24l-77 -171h-40l40 195q4 18 16.5 27.5t27.5 9.5q16 0 28 -10t12 -27zM237 644q0 -13 -9 -30l-78 -171h-40l40 187q5 23 19.5 34.5t32.5 11.5q35 0 35 -32z" />
    <glyph glyph-name="numbersign" unicode="#" horiz-adv-x="597" 
d="M590 404h-103l-16 -124h95v-63h-102l-32 -217h-62l32 217h-134l-32 -217h-63l32 217h-111v63h119l15 124h-110v62h118l32 211h63l-32 -211h133l32 211h63l-32 -211h95v-62zM424 404h-133l-15 -124h132z" />
    <glyph glyph-name="dollar" unicode="$" 
d="M620 518q0 -30 -17 -52t-40 -22q-19 0 -33.5 13.5t-14.5 34.5q0 7 9 26q5 11 5 18q0 19 -17 35q-24 23 -72 28l-38 -210q109 -16 166 -63q50 -41 50 -99q0 -78 -82 -144.5t-197 -66.5l-16 -109h-47l15 109q-86 11 -148 49q-69 43 -69 98q0 28 18.5 53t43.5 25
q24 0 43 -17t19 -40q0 -7 -7.5 -24t-7.5 -25q0 -26 36.5 -45.5t79.5 -19.5l40 225q-109 23 -160 72q-41 39 -41 91q0 82 77.5 138.5t186.5 56.5l14 102h48l-16 -102q87 -11 133 -53q39 -36 39 -82zM394 606q-57 -6 -99 -29q-58 -31 -58 -81q0 -33 21 -57q30 -35 96 -42z
M521 195q0 36 -41 60q-32 18 -94 32l-40 -217q71 0 123 38t52 87z" />
    <glyph glyph-name="percent" unicode="%" horiz-adv-x="794" 
d="M817 245q0 -102 -54 -176q-62 -85 -166 -85q-69 0 -104.5 48.5t-35.5 122.5q0 102 59 179q66 86 176 86q60 0 94 -53q31 -48 31 -122zM716 684l-496 -684h-63l496 684h63zM409 524q0 -99 -57 -179q-63 -88 -155 -88q-69 0 -106.5 51t-37.5 123q0 98 58 176q63 85 157 85
q65 0 103 -49.5t38 -118.5zM740 252q0 57 -12 85q-15 36 -52 36q-61 0 -104 -71t-43 -151q0 -56 17.5 -91.5t58.5 -35.5q61 0 100 76q35 67 35 152zM337 528q0 55 -19 90t-58 35q-55 0 -93.5 -78t-38.5 -163q0 -51 17 -84t52 -33q60 0 102 78q38 71 38 155z" />
    <glyph glyph-name="ampersand" unicode="&#x26;" horiz-adv-x="818" 
d="M852 107q0 -39 -43 -81q-51 -50 -123 -50q-44 0 -86 19t-73 59q-98 -74 -233 -74q-92 0 -158 45q-73 50 -73 130q0 93 81 168q64 59 139 81q-39 29 -39 92q0 73 51 130q59 66 153 66q58 0 92 -34t34 -83q0 -53 -38 -100q-43 -52 -120 -78q65 -73 84 -98q49 -63 74 -128
q19 25 39 50q23 33 23 55q0 5 -39 42q-19 18 -19 38q0 27 21 53.5t50 26.5q32 0 52 -25t20 -62q0 -54 -47 -128q-36 -57 -77 -97q15 -48 53 -73q32 -21 67 -21q16 0 27 6t11 15q0 7 -14 25t-14 41q0 24 19 41t43 17t40 -13q23 -18 23 -55zM499 586q0 27 -13.5 43.5
t-37.5 16.5q-49 0 -81 -32t-32 -79q0 -26 12.5 -54.5t38.5 -52.5q55 29 84 73t29 85zM503 93q-29 64 -84.5 144.5t-103.5 127.5q-65 -14 -102.5 -71t-37.5 -123q0 -70 43 -107q39 -34 107 -34q45 0 90 15.5t88 47.5z" />
    <glyph glyph-name="quotesingle" unicode="'" horiz-adv-x="276" 
d="M285 632q0 -75 -64 -128q-21 -17 -64 -38l-15 24q21 14 43 29q28 24 43 65q-23 -12 -37 -12q-15 0 -24 9q-15 15 -15 42q0 32 20.5 50.5t52.5 18.5q27 0 43.5 -14t16.5 -46z" />
    <glyph glyph-name="parenleft" unicode="(" horiz-adv-x="276" 
d="M394 723l-16 -62q-75 -12 -139 -224q-59 -195 -59 -374q0 -57 16 -97.5t56 -66.5l-8 -62q-80 29 -117 99q-31 59 -31 153q0 110 28 241q34 161 94 260q74 124 176 133z" />
    <glyph glyph-name="parenright" unicode=")" horiz-adv-x="276" 
d="M269 507q0 -225 -67 -408q-81 -221 -218 -239l8 54q69 37 118 178q35 101 58 260q17 119 17 177q0 53 -15 92t-52 63l8 63q79 -29 113 -91q30 -55 30 -149z" />
    <glyph glyph-name="asterisk" unicode="*" horiz-adv-x="432" 
d="M509 573q0 -34 -46 -47q-3 -1 -77 -12l-8 -24q105 0 105 -52q0 -19 -14 -36t-37 -17t-43.5 22.5t-34.5 58.5l-15 -7q4 -26 8 -51q1 -8 1 -25q0 -27 -15.5 -45.5t-33.5 -18.5q-21 0 -34 11t-13 34q0 18 11 41.5t36 53.5l-16 15q-26 -43 -55 -64q-24 -17 -46 -17
q-24 0 -35.5 14t-11.5 29q0 25 32 42q38 20 109 20v16q-55 0 -84 17t-29 40q0 18 18 35t37 17q46 0 81 -79l16 8q-16 39 -16 71q0 61 55 61q45 0 45 -33q0 -19 -10.5 -41.5t-34.5 -57.5l16 -8q15 24 42 46q32 25 56 25q22 0 33 -15q8 -11 8 -27z" />
    <glyph glyph-name="plus" unicode="+" horiz-adv-x="597" 
d="M605 249h-219v-225h-79v225h-213v78h213v209h79v-209h219v-78z" />
    <glyph glyph-name="comma" unicode="," horiz-adv-x="299" 
d="M238 46q0 -49 -44.5 -99t-91.5 -64l-8 24q26 12 53.5 43t33.5 58q-22 -19 -40 -19q-17 0 -27.5 16.5t-10.5 37.5q0 33 18 54t48 21q27 0 48 -20t21 -52z" />
    <glyph glyph-name="hyphen" unicode="-" horiz-adv-x="315" 
d="M346 327l-31 -62h-244l31 62h244z" />
    <glyph glyph-name="period" unicode="." horiz-adv-x="299" 
d="M234 69q0 -30 -20.5 -53.5t-56.5 -23.5q-29 0 -43.5 15.5t-14.5 37.5q0 30 23.5 58.5t50.5 28.5q28 0 44.5 -18.5t16.5 -44.5z" />
    <glyph glyph-name="slash" unicode="/" horiz-adv-x="597" 
d="M566 708l-377 -863h-95l377 863h95z" />
    <glyph glyph-name="zero" unicode="0" 
d="M656 404q0 -160 -99 -295q-102 -139 -233 -139q-108 0 -175 87q-60 78 -60 186q0 154 94 292q103 151 241 151q115 0 176 -81q56 -75 56 -201zM543 440q0 91 -20 133q-28 59 -103 59q-88 0 -158 -134q-65 -125 -65 -264q0 -89 36 -150.5t95 -61.5q84 0 149.5 122.5
t65.5 295.5z" />
    <glyph glyph-name="one" unicode="1" 
d="M511 31l-8 -31h-346l8 31q69 10 81 15q40 16 45 63l79 419q3 18 3 30q0 45 -50 51q-32 2 -63 5l8 32l188 38h47l-101 -544q-3 -21 -3 -37q0 -36 16 -50t96 -22z" />
    <glyph glyph-name="two" unicode="2" 
d="M634 526q0 -94 -84 -190q-68 -78 -186 -153q-89 -57 -183 -97h251q66 0 109 62q24 40 33 54l39 -15l-86 -187h-464l16 78q108 56 199 121q108 78 169 153q71 87 71 163q0 58 -37.5 89.5t-92.5 31.5q-56 0 -100.5 -26t-44.5 -64q0 -9 7.5 -28t7.5 -28q0 -24 -18.5 -45.5
t-43.5 -21.5q-26 0 -43.5 18.5t-17.5 45.5q0 80 83.5 140.5t199.5 60.5q93 0 150 -37q66 -43 66 -125z" />
    <glyph glyph-name="three" unicode="3" 
d="M627 540q0 -65 -50 -114q-54 -53 -137 -53q85 -16 128 -59q40 -40 40 -95q0 -89 -90 -163q-97 -80 -227 -80q-97 0 -166.5 43t-69.5 105q0 31 25 57t56 26q19 0 32 -9.5t13 -29.5q0 -8 -10.5 -32t-10.5 -37q0 -26 36 -42.5t88 -16.5q110 0 161 59q41 48 41 131
q0 115 -154 115l-56 -3l7 47q88 0 151 30q80 38 80 109q0 65 -31 91q-26 22 -75 22q-53 0 -101.5 -25.5t-48.5 -54.5q0 -7 4 -19t4 -17q0 -27 -21.5 -45.5t-48.5 -18.5q-21 0 -35 13t-14 40q0 76 78.5 127t198.5 51q100 0 155 -48q48 -42 48 -104z" />
    <glyph glyph-name="four" unicode="4" 
d="M637 241l-24 -62h-126q-12 -44 -12 -73q0 -40 21 -57.5t62 -17.5l-8 -31h-298l8 31q62 0 98 37t36 111h-315l-16 46l408 444h103l-79 -428h142zM456 584l-314 -343h260z" />
    <glyph glyph-name="five" unicode="5" 
d="M621 684l-31 -93h-338l-47 -202q43 40 95.5 60.5t107.5 20.5q89 0 146 -48q63 -53 63 -144q0 -140 -110 -225q-97 -75 -229 -75q-81 0 -144 40.5t-63 98.5q0 32 24 59t50 27q20 0 33.5 -12.5t13.5 -36.5q0 -9 -8 -32t-8 -35q0 -24 26 -37.5t67 -13.5q86 0 148 52
q78 65 78 185q0 61 -38 94q-34 29 -87 29q-49 0 -99 -25.5t-82 -67.5l-55 24l71 357h416z" />
    <glyph glyph-name="six" unicode="6" 
d="M660 576q0 -33 -19 -51t-44 -18q-24 0 -38 16q-17 20 -17 61q0 21 -21.5 39.5t-53.5 18.5q-9 0 -14 -1q-94 -13 -151 -78q-69 -78 -89 -221q46 48 98.5 71t106.5 23q86 0 148.5 -50t62.5 -129q0 -101 -77 -184q-91 -98 -237 -98q-104 0 -165.5 79t-61.5 197q0 158 97 289
q109 147 271 147q78 0 141 -30.5t63 -80.5zM514 246q0 58 -37.5 92.5t-92.5 34.5q-70 0 -129.5 -59.5t-59.5 -134.5q0 -65 40 -104t96 -39q78 0 132 68q51 64 51 142z" />
    <glyph glyph-name="seven" unicode="7" 
d="M668 622q-60 -51 -140 -158q-91 -121 -146 -234q-67 -137 -67 -230h-150q53 157 152 302.5t249 288.5h-243q-56 0 -90 -21t-60 -64h-39l63 178h463z" />
    <glyph glyph-name="eight" unicode="8" 
d="M669 537q0 -48 -40 -87q-45 -44 -134 -69q65 -22 99 -67.5t34 -102.5q0 -91 -77 -159q-86 -76 -228 -76q-130 0 -198 54q-58 46 -58 122q0 74 54.5 135.5t138.5 70.5q-50 22 -75 55.5t-25 71.5q0 78 86.5 144t202.5 66q94 0 157 -47.5t63 -110.5zM574 551q0 40 -38 69
t-100 29q-67 0 -115 -38t-48 -88q0 -39 35 -69q39 -34 116 -50q62 7 106 52t44 95zM519 171q0 52 -49 95q-54 47 -155 69q-69 -17 -112.5 -72t-43.5 -114q0 -52 35 -84q40 -36 114 -36q84 0 147.5 43.5t63.5 98.5z" />
    <glyph glyph-name="nine" unicode="9" 
d="M656 440q0 -159 -97 -299q-109 -158 -265 -158q-74 0 -140.5 30t-66.5 73q0 29 17.5 55t38.5 26q23 0 38.5 -19.5t15.5 -61.5q0 -24 24 -36.5t60 -12.5q87 0 158 79q79 88 95 234q-47 -53 -102.5 -79t-113.5 -26q-85 0 -143.5 49t-58.5 130q0 94 81 178q95 99 243 99
q107 0 161.5 -67.5t54.5 -193.5zM549 522q0 58 -35.5 90t-88.5 32q-85 0 -147 -74q-57 -68 -57 -148q0 -57 35.5 -88t89.5 -31q75 0 136 58q67 64 67 161z" />
    <glyph glyph-name="colon" unicode=":" horiz-adv-x="299" 
d="M296 437q0 -31 -22 -55t-61 -24q-29 0 -44.5 16.5t-15.5 42.5q0 27 26 54t57 27q25 0 42.5 -18.5t17.5 -42.5zM237 71q0 -30 -22 -54.5t-58 -24.5q-31 0 -48.5 18.5t-17.5 42.5q0 28 24.5 53.5t57.5 25.5q28 0 46 -18t18 -43z" />
    <glyph glyph-name="semicolon" unicode=";" horiz-adv-x="299" 
d="M294 443q0 -31 -23 -58t-58 -27q-28 0 -42.5 16.5t-14.5 42.5q0 32 21.5 56.5t58.5 24.5q29 0 43.5 -15.5t14.5 -39.5zM234 56q0 -49 -37 -98q-41 -55 -103 -75l-7 24q36 24 65 57t29 52q-27 -24 -47 -24q-17 0 -27 15.5t-10 37.5q0 32 17 53q21 26 59 26
q30 0 45.5 -19.5t15.5 -48.5z" />
    <glyph glyph-name="less" unicode="&#x3c;" horiz-adv-x="597" 
d="M597 474l-408 -187l401 -186v-85l-511 241v70l518 233v-86z" />
    <glyph glyph-name="equal" unicode="=" horiz-adv-x="597" 
d="M597 342h-510v86h510v-86zM597 148h-510v85h510v-85z" />
    <glyph glyph-name="greater" unicode="&#x3e;" horiz-adv-x="597" 
d="M597 257l-510 -233v85l392 178l-392 187v86l510 -241v-62z" />
    <glyph glyph-name="question" unicode="?" horiz-adv-x="534" 
d="M602 526q0 -95 -82 -150l-154 -84q-83 -54 -83 -144h-47v21q0 101 65 155q60 38 121 77q65 49 65 139q0 44 -25 73q-28 33 -76 33q-55 0 -111.5 -25.5t-56.5 -51.5q0 -9 5 -25t5 -22q0 -29 -19.5 -45.5t-44.5 -16.5q-24 0 -40.5 14t-16.5 40q0 61 73 115q79 59 184 59
q110 0 174 -45.5t64 -116.5zM313 62q0 -31 -19.5 -54.5t-57.5 -23.5q-28 0 -42.5 15.5t-14.5 39.5q0 32 22.5 58.5t58.5 26.5q25 0 39 -18t14 -44z" />
    <glyph glyph-name="at" unicode="@" horiz-adv-x="779" 
d="M801 401q0 -119 -85 -205q-77 -78 -163 -78q-33 0 -56 14.5t-33 46.5q-31 -30 -62.5 -44.5t-56.5 -14.5q-50 0 -81 43.5t-31 107.5q0 103 78.5 189.5t161.5 86.5q33 0 59 -13t42 -36l16 38h86l-118 -311q-10 -23 -10 -37q0 -24 25 -24q55 0 115 71q65 77 65 163
q0 123 -91 186q-76 52 -190 52q-136 0 -228 -98q-87 -93 -87 -219q0 -129 89 -212q84 -79 204 -79q92 0 174 45t115 114h47q-38 -100 -133 -155q-88 -51 -199 -51q-160 0 -259 102q-94 97 -94 243q0 137 101 246q109 117 265 117q151 0 242.5 -77.5t91.5 -210.5zM547 456
q0 51 -44 51q-70 0 -132 -102q-57 -94 -57 -175q0 -35 13 -55t37 -20q61 0 126 127q57 112 57 174z" />
    <glyph glyph-name="A" unicode="A" horiz-adv-x="692" 
d="M723 31l-7 -31h-276l8 31q26 0 48 10q33 15 33 46q0 4 -2 14l-32 140h-251l-71 -124q-9 -17 -9 -31q0 -26 26 -40.5t62 -14.5l-8 -31h-275l7 31q40 8 59 19q33 19 59 67l314 560h103l118 -553q7 -39 29 -64q26 -29 65 -29zM487 295l-63 289l-156 -289h219z" />
    <glyph glyph-name="B" unicode="B" horiz-adv-x="716" 
d="M752 518q0 -48 -40 -89q-45 -45 -130 -71q63 0 104 -48t41 -112q0 -81 -67 -135q-79 -63 -228 -63h-416l8 31q28 6 57 12q35 17 45 74l71 411q6 35 6 55q0 30 -14 41.5t-55 21.5l8 31h392q94 0 156 -47.5t62 -111.5zM631 513q0 60 -56 89q-48 25 -127 25q-60 0 -97.5 -16
t-43.5 -51l-31 -179l110 -2q140 0 197 39q48 33 48 95zM605 195q0 82 -41 108q-53 33 -230 33l-66 -1l-40 -242q-4 -25 34 -38.5t97 -13.5q91 0 163 38q83 44 83 116z" />
    <glyph glyph-name="C" unicode="C" horiz-adv-x="716" 
d="M747 428h-39q-23 89 -77 145q-59 61 -136 61q-116 0 -200 -117t-84 -274q0 -104 66 -159q57 -47 141 -47q80 0 155 44.5t119 120.5l47 -23q-57 -101 -149 -154q-85 -49 -184 -49q-132 0 -224 80q-98 86 -98 224q0 162 109 283q115 128 283 128q58 0 108 -19.5t84 -57.5
l32 55h39z" />
    <glyph glyph-name="D" unicode="D" horiz-adv-x="731" 
d="M784 389q0 -149 -102 -264q-111 -125 -280 -125h-378l7 31q31 0 56 22t31 56l79 443q1 6 1 16q0 32 -22 52.5t-50 25.5l8 31h330q158 0 243 -87q77 -78 77 -201zM659 391q0 119 -76 181q-63 51 -153 51q-52 0 -89.5 -18.5t-41.5 -44.5l-79 -459q-4 -26 26 -42.5t78 -16.5
q121 0 216 77q119 97 119 272z" />
    <glyph glyph-name="E" unicode="E" horiz-adv-x="676" 
d="M731 474l-39 -8q-27 74 -113 118q-75 38 -158 38q-46 0 -78 -14.5t-36 -39.5l-39 -187q20 0 40 -1l40 -2q55 0 83 20q37 27 48 100h32l-47 -288h-32q0 6 1 15.5t1 17.5q0 57 -42 73q-29 11 -132 11l-32 -218q-3 -21 31 -40.5t82 -19.5q81 0 165 38q100 45 170 130l40 -15
l-103 -202h-597l8 31q64 17 76 35q16 23 26 82l71 412q1 4 1 7v7q0 32 -30 52q-35 17 -42 20l8 31h558z" />
    <glyph glyph-name="F" unicode="F" 
d="M739 482l-39 -16q-31 84 -115 125q-68 33 -153 33q-50 0 -86.5 -10t-38.5 -23l-39 -202q16 0 44 -1t39 -1q59 0 85 18q35 24 51 93h32l-48 -288h-31q-7 77 -25 94q-32 31 -155 31l-32 -218q-1 -4 -1 -13q0 -30 20.5 -51.5t59.5 -21.5l-8 -31h-283l8 31q35 0 58 14
q30 18 36 56l79 459q2 16 2 22q0 24 -14 38q-17 17 -59 26l8 31h558z" />
    <glyph glyph-name="G" unicode="G" horiz-adv-x="755" 
d="M810 319l-8 -32q-47 -12 -63 -26q-22 -19 -31 -66l-40 -195h-55l-16 78q-40 -49 -100 -75.5t-127 -26.5q-119 0 -200 73q-91 82 -91 225q0 163 98 282q109 132 286 132q59 0 108 -17.5t89 -56.5l16 63h32l15 -218h-31q-35 89 -91.5 135t-125.5 46q-116 0 -193.5 -109
t-77.5 -276q0 -99 46.5 -159t140.5 -60q79 0 146.5 50.5t67.5 122.5q0 32 -16 51q-19 23 -62 27l7 32h276z" />
    <glyph glyph-name="H" unicode="H" horiz-adv-x="794" 
d="M889 677l-8 -31q-50 -7 -73 -22q-31 -20 -37 -64l-71 -428q-2 -18 -2 -25q0 -36 17 -56t56 -20l-8 -31h-284l8 31q41 0 69 21t34 57l39 226h-369l-32 -226q-5 -39 27 -61q25 -17 60 -17l-8 -31h-291l8 31q56 14 70 30q23 25 32 79l71 412q1 4 1 13q0 31 -22.5 53.5
t-57.5 27.5l8 31h298l-8 -31q-34 -10 -67 -19q-34 -14 -42 -51l-39 -187h369l31 179q5 30 -18.5 51t-59.5 27l7 31h292z" />
    <glyph glyph-name="I" unicode="I" horiz-adv-x="315" 
d="M408 677l-6 -31q-46 -7 -67 -22.5t-28 -55.5l-79 -459q-1 -4 -1 -7v-7q0 -31 22 -47.5t58 -16.5l-8 -31h-275l7 31q35 0 58 15q29 19 37 63l79 467q1 4 1 13q0 29 -29 45q-22 12 -43 12l8 31h266z" />
    <glyph glyph-name="J" unicode="J" horiz-adv-x="558" 
d="M668 677l-8 -31q-42 -7 -63 -22q-28 -20 -39 -64l-71 -389q-15 -91 -101 -143q-74 -45 -161 -45q-114 0 -179 55q-55 47 -55 110q0 57 30 92t67 35q22 0 35.5 -15.5t13.5 -36.5q0 -16 -43 -61q-20 -21 -20 -38q0 -32 41 -58t95 -26q68 0 116 45q57 53 76 164l54 311
q1 4 1 12q0 28 -22.5 48.5t-56.5 25.5l8 31h282z" />
    <glyph glyph-name="K" unicode="K" horiz-adv-x="716" 
d="M810 677l-8 -31q-51 -11 -85 -29q-27 -14 -72 -49l-181 -140l189 -319q19 -32 43.5 -52t58.5 -26l-8 -31h-291l8 31q29 0 49 8q27 11 27 32q0 10 -6 22l-156 272l-126 -92l-24 -164q-1 -5 -1 -15q0 -30 19.5 -44t60.5 -19l-8 -31h-275l7 31q43 7 59 21q25 21 36 80
l79 436q1 4 1 12q0 28 -22.5 44.5t-57.5 21.5l8 31h282l-8 -31q-55 -14 -75 -28q-28 -19 -34 -58l-31 -218l282 218q28 22 28 43q0 17 -15.5 28t-43.5 15l8 31h283z" />
    <glyph glyph-name="L" unicode="L" horiz-adv-x="574" 
d="M660 217l-102 -217h-542l8 31q43 0 71 33q24 28 31 68l71 420q4 20 4 37q0 42 -33 50q-27 5 -42 7l8 31h282l-8 -31q-53 -6 -78 -25.5t-31 -60.5l-71 -459q-4 -25 19.5 -38t60.5 -13q80 0 169 45q100 51 144 130z" />
    <glyph glyph-name="M" unicode="M" horiz-adv-x="857" 
d="M960 677l-8 -31q-67 -17 -73 -21q-27 -17 -37 -81l-63 -404q-3 -18 -5 -30.5t-2 -20.5q0 -25 14.5 -39.5t55.5 -18.5l-8 -31h-276l8 31q43 6 69.5 29.5t32.5 63.5l79 467l-331 -591h-46l-102 599l-87 -459q-2 -8 -3 -15q-1 -6 -1 -15q0 -32 17 -51q21 -24 66 -28l-8 -31
h-244l8 31q39 7 67.5 29.5t34.5 56.5l71 419q4 20 4 40q0 61 -67 70l8 31h220l94 -514l291 514h221z" />
    <glyph glyph-name="N" unicode="N" horiz-adv-x="716" 
d="M834 677l-8 -31q-41 -8 -63 -20q-35 -19 -40 -50l-102 -576h-94l-259 606l-79 -482q-2 -11 -3 -20t-1 -19q0 -36 24 -45q1 0 59 -9l-8 -31h-236l7 31q28 5 56 11q29 15 39 75l79 451q1 5 1 15q0 25 -15 40q-18 18 -57 23l8 31h212l236 -545l70 436q1 5 1 15q0 31 -29 47
q-19 10 -58 16l8 31h252z" />
    <glyph glyph-name="O" unicode="O" horiz-adv-x="755" 
d="M802 398q0 -91 -44 -181q-51 -105 -142 -167q-108 -74 -254 -74q-120 0 -201 86t-81 214q0 175 127 298q121 118 280 118q132 0 221 -77q94 -82 94 -217zM675 411q0 93 -41 155q-48 72 -139 72q-119 0 -206 -125q-83 -119 -83 -260q0 -98 42 -157q46 -65 130 -65
q125 0 214 123q83 115 83 257z" />
    <glyph glyph-name="P" unicode="P" horiz-adv-x="597" 
d="M682 500q0 -84 -68 -145q-76 -68 -206 -68h-148l-32 -170q-1 -4 -1 -12q0 -31 23.5 -52.5t56.5 -21.5l-8 -31h-283l8 31q42 0 69 26q21 20 25 44l79 459q5 30 -16.5 55.5t-54.5 30.5l8 31h330q105 0 164 -54q54 -49 54 -123zM570 510q0 54 -24 77q-34 32 -128 32
q-48 0 -82 -13.5t-37 -45.5l-31 -225l68 -2q130 0 188 56q46 44 46 121z" />
    <glyph glyph-name="Q" unicode="Q" horiz-adv-x="779" 
d="M806 399q0 -85 -38 -167.5t-115 -153.5q23 -35 23 -71q0 -81 -100 -141t-234 -60q-107 0 -190 34q-94 39 -94 100q0 23 19.5 43.5t42.5 20.5q22 0 37.5 -15.5t15.5 -42.5q0 -39 44.5 -61t109.5 -22q87 0 155 30q100 44 100 138q-55 -28 -111 -42.5t-102 -14.5
q-133 0 -218 90q-80 85 -80 205q0 145 106 270q123 145 318 145q147 0 232 -84q79 -78 79 -201zM689 418q0 97 -51 158t-138 61q-113 0 -203 -96q-103 -110 -103 -284q0 -80 26 -134q33 -68 103 -92q-13 26 -13 49q0 40 40 59.5t99 19.5q47 0 88 -10t60 -25q31 35 61.5 122
t30.5 172zM534 70q-12 10 -38 16t-51 6q-35 0 -60 -10.5t-25 -28.5q0 -27 52 -27q29 0 61.5 10.5t60.5 33.5z" />
    <glyph glyph-name="R" unicode="R" horiz-adv-x="692" 
d="M739 31l-8 -31h-165l-172 319h-126l-32 -195q-1 -19 -1 -29q0 -30 13 -44q18 -20 67 -20l-8 -31h-283l7 31q40 0 60 17q31 26 43 100l71 420q5 30 -17 54t-54 24l8 31h377q107 0 165 -48q51 -43 51 -109q0 -77 -61 -137q-65 -64 -163 -64l86 -156q34 -66 59 -92
q33 -34 83 -40zM619 514q0 105 -175 105q-54 0 -93.5 -13t-43.5 -38l-31 -203h180q71 0 119 48q44 44 44 101z" />
    <glyph glyph-name="S" unicode="S" horiz-adv-x="637" 
d="M672 225q0 -101 -106 -176q-97 -69 -206 -69q-62 0 -117.5 18t-92.5 48l-24 -46h-39l-24 249h39q41 -133 131 -185q57 -33 137 -33q61 0 123.5 50.5t62.5 106.5q0 65 -109 100q-102 29 -203 58q-110 45 -110 133q0 92 83 151q78 55 186 55q53 0 101 -13.5t86 -41.5l15 47
h32l31 -203h-39q-27 84 -94 125q-57 35 -128 35q-81 0 -125 -43q-33 -33 -33 -72q0 -64 109 -99l204 -60q110 -46 110 -135z" />
    <glyph glyph-name="T" unicode="T" horiz-adv-x="597" 
d="M723 474h-31q-39 76 -91 116q-45 34 -88 34q-56 0 -65 -48l-78 -459q-1 -4 -1 -13q0 -30 21.5 -51.5t57.5 -21.5l-8 -31h-298l8 31q44 0 63 9q36 17 47 69l86 482q0 30 -40 30q-48 0 -108 -35q-71 -41 -119 -112h-32l87 203h558z" />
    <glyph glyph-name="U" unicode="U" horiz-adv-x="716" 
d="M842 677l-8 -31q-37 -6 -63 -29t-32 -57l-63 -373q-16 -101 -111 -160q-86 -53 -197 -53q-101 0 -175 50q-78 53 -78 133q0 15 3 30l71 373q1 4 1 12q0 29 -21.5 51.5t-50.5 22.5l8 31h268l-8 -31q-40 -7 -62 -30q-29 -30 -41 -95l-63 -326q-3 -17 -3 -32q0 -64 55 -101
q50 -34 124 -34q79 0 138 39q66 44 79 120l63 381q5 29 -16 50.5t-55 27.5l8 31h229z" />
    <glyph glyph-name="V" unicode="V" horiz-adv-x="676" 
d="M818 677l-8 -31q-69 0 -118 -86l-322 -560h-63l-134 576q-11 43 -31.5 56.5t-54.5 13.5l7 31h276l-8 -31q-40 -5 -56 -22t-16 -55q0 -16 1 -25l87 -420l243 436q12 23 12 38q0 25 -23 36.5t-52 11.5l8 31h252z" />
    <glyph glyph-name="W" unicode="W" horiz-adv-x="952" 
d="M1086 677l-8 -31q-57 -14 -58 -15q-19 -14 -45 -55l-291 -576h-63l-79 436l-211 -436h-63l-103 560q-6 36 -24.5 58t-53.5 28l7 31h260l-8 -31q-37 -6 -50 -14q-21 -13 -21 -42q0 -9 1 -14l63 -436l180 381q4 8 4 24q0 35 -20 65q-24 36 -63 36l8 31h260l-8 -31
q-47 -9 -49 -10q-23 -10 -23 -38q0 -9 1 -14l63 -444l205 412q15 25 15 46q0 23 -18.5 35.5t-51.5 12.5l7 31h237z" />
    <glyph glyph-name="X" unicode="X" horiz-adv-x="692" 
d="M818 677l-8 -31q-43 -15 -66 -23q-44 -16 -68 -39l-205 -211l150 -241q27 -44 44 -62q32 -34 74 -39l-8 -31h-307l8 31q39 4 59.5 19.5t20.5 37.5q0 14 -9 29l-117 194l-166 -179q-25 -28 -25 -53q0 -21 17.5 -34.5t47.5 -13.5l-8 -31h-268l8 31q33 13 65 32q40 24 69 54
l236 241l-134 218q-18 30 -36 43q-21 16 -66 27l8 31h290l-8 -31q-26 0 -48.5 -11.5t-22.5 -32.5q0 -11 9 -26l94 -156l142 148q17 17 17 35q0 16 -14 27.5t-43 15.5l8 31h260z" />
    <glyph glyph-name="Y" unicode="Y" horiz-adv-x="653" 
d="M810 677l-8 -31q-53 -19 -77 -28q-44 -18 -72 -50l-237 -273l-22 -178q-1 -6 -1 -16q0 -38 23.5 -54t62.5 -16l-8 -31h-306l8 31q65 9 71 12q31 13 39 58l32 179l-134 280q-17 39 -38 56t-64 30l8 31h275l-8 -31q-40 -8 -54 -20t-14 -28q0 -12 5 -22l111 -226l188 226
q17 20 17 35q0 14 -17.5 22t-47.5 13l8 31h260z" />
    <glyph glyph-name="Z" unicode="Z" horiz-adv-x="574" 
d="M700 638l-535 -592l143 -3q95 0 157 27q82 36 156 132l32 -15l-87 -187h-535l-23 31l534 583q-47 9 -96 9q-88 0 -156 -31q-80 -36 -140 -118l-32 16l79 187h487z" />
    <glyph glyph-name="bracketleft" unicode="[" horiz-adv-x="260" 
d="M346 708l-7 -39q-44 0 -60 -17q-12 -13 -19 -53l-110 -638q-3 -12 -3 -21q0 -20 17 -30.5t56 -10.5l-7 -39h-158l134 848h157z" />
    <glyph glyph-name="backslash" unicode="\" horiz-adv-x="597" 
d="M550 0h-94l-385 715h102z" />
    <glyph glyph-name="bracketright" unicode="]" horiz-adv-x="260" 
d="M307 715l-150 -855h-149l8 39q50 7 60 13q20 11 26 49l111 645q2 12 2 17q0 27 -18 38t-55 16l8 38h157z" />
    <glyph glyph-name="asciicircum" unicode="^" horiz-adv-x="597" 
d="M597 280h-94l-164 304l-158 -304h-94l212 404h87z" />
    <glyph glyph-name="underscore" unicode="_" horiz-adv-x="495" 
d="M503 -148h-503v70h503v-70z" />
    <glyph glyph-name="grave" unicode="`" horiz-adv-x="534" 
d="M495 576l-16 -32l-140 55q-22 8 -33.5 23t-11.5 31q0 19 11.5 32.5t29.5 13.5q19 0 35 -15z" />
    <glyph glyph-name="a" unicode="a" 
d="M684 62q-35 -39 -69 -56.5t-65 -17.5q-47 0 -78.5 33.5t-31.5 79.5q-42 -56 -94.5 -85t-105.5 -29q-75 0 -123 50q-52 54 -52 146q0 110 70 202q83 109 215 109q37 0 74 -12.5t71 -38.5l8 39h94l-55 -342q-2 -16 -2 -23q0 -33 15 -49t38 -16q18 0 36.5 9t30.5 25z
M487 389q-16 23 -44 36t-63 13q-95 0 -155 -89q-54 -80 -54 -185q0 -61 24 -90.5t64 -29.5q77 0 133 69q70 87 95 276z" />
    <glyph glyph-name="b" unicode="b" horiz-adv-x="597" 
d="M620 313q0 -120 -79 -217q-82 -101 -193 -101q-43 0 -83 15.5t-84 51.5l-31 -62h-71l102 584q1 4 1 12q0 24 -21 36q-15 8 -51 14l8 31q29 0 75 11t75 27h39l-63 -342q38 61 93 93t113 32q72 0 119 -46q51 -50 51 -139zM517 323q0 56 -26 89.5t-68 33.5q-66 0 -127 -74
q-77 -93 -99 -263q43 -62 110 -62q71 0 138 80q72 86 72 196z" />
    <glyph glyph-name="c" unicode="c" horiz-adv-x="471" 
d="M522 381q0 -21 -14.5 -37.5t-33.5 -16.5q-30 0 -40 10.5t-10 30.5q0 37 -12 54q-17 24 -59 24q-74 0 -132 -89q-54 -82 -54 -171q0 -65 37 -101t96 -36q87 0 171 75l24 -31q-60 -53 -121 -78q-51 -21 -101 -21q-97 0 -158 65q-56 60 -56 142q0 109 90 201q94 97 220 97
q70 0 114 -40q39 -35 39 -78z" />
    <glyph glyph-name="d" unicode="d" horiz-adv-x="637" 
d="M692 70q-27 -33 -68.5 -54.5t-81.5 -21.5q-44 0 -71 28q-31 32 -31 95q-25 -56 -81.5 -89.5t-118.5 -33.5q-82 0 -129 54t-47 146q0 113 68 200q80 103 215 103q44 0 83 -11.5t73 -42.5l24 133q1 3 1 6v5q0 22 -20 35.5t-60 23.5l8 31q35 0 87.5 13t77.5 25h32l-111 -583
q-1 -4 -1 -11q0 -24 15 -44t37 -20q14 0 31 8.5t36 27.5zM495 389q-32 27 -65 40.5t-62 13.5q-84 0 -144 -90q-54 -81 -54 -176q0 -57 19 -88q23 -38 72 -38q62 0 119 53t76 129z" />
    <glyph glyph-name="e" unicode="e" horiz-adv-x="534" 
d="M581 380q0 -74 -117 -121q-106 -43 -247 -43l-36 1l-3 -41q0 -70 35 -103q31 -30 88 -30q47 0 100.5 20t101.5 54l24 -31q-62 -47 -126.5 -71t-119.5 -24q-96 0 -157 58t-61 146q0 116 119 214q108 89 204 89q90 0 142.5 -34t52.5 -84zM479 382q0 24 -28.5 48.5
t-58.5 24.5q-66 0 -134.5 -69.5t-68.5 -128.5q96 0 189 36q101 39 101 89z" />
    <glyph glyph-name="f" unicode="f" horiz-adv-x="339" 
d="M560 669q0 -19 -14.5 -33.5t-34.5 -14.5q-16 0 -60 41q-21 20 -43 20q-25 0 -44 -15.5t-25 -52.5l-24 -132h101l-8 -31h-101l-94 -482q-18 -95 -83 -140q-55 -38 -139 -38q-67 0 -99 9q-60 17 -60 67q0 16 12.5 27.5t34.5 11.5q41 0 72.5 -37.5t67.5 -37.5t61 20
q32 26 38 79l87 521h-87l8 31h87q18 133 90 195q57 50 140 50q50 0 83.5 -18.5t33.5 -39.5z" />
    <glyph glyph-name="g" unicode="g" horiz-adv-x="558" 
d="M582 474l-87 -466q-23 -120 -119 -183q-82 -53 -190 -53q-75 0 -130.5 22.5t-55.5 57.5q0 24 14 43t35 19q32 0 55 -31q50 -68 106 -68q91 0 147 86q47 72 67 200q-42 -60 -91.5 -89t-100.5 -29q-74 0 -126.5 55.5t-52.5 140.5q0 127 82.5 217.5t194.5 90.5
q47 0 87 -16.5t62 -42.5l16 46h87zM471 381q-28 32 -55 46.5t-56 14.5q-78 0 -140 -97q-58 -90 -58 -189q0 -56 17 -84q21 -35 70 -35q58 0 117 56q54 52 66 102z" />
    <glyph glyph-name="h" unicode="h" 
d="M684 62q-21 -30 -58.5 -47.5t-75.5 -17.5q-42 0 -76.5 26.5t-34.5 64.5q0 9 1 13l47 264q2 16 2 22q0 30 -16.5 44t-46.5 14q-41 0 -92 -22.5t-90 -57.5l-63 -365h-102l102 568q4 15 4 29q0 24 -16 33.5t-51 15.5l8 31q35 0 71 7t71 24h39l-55 -288q50 42 104.5 62.5
t103.5 20.5q53 0 92 -25.5t39 -66.5q0 -9 -1 -14l-48 -288q-1 -4 -1 -12q0 -20 15 -32t34 -12q21 0 42 9t36 24z" />
    <glyph glyph-name="i" unicode="i" horiz-adv-x="276" 
d="M325 610q0 -25 -17.5 -45.5t-47.5 -20.5q-27 0 -43 15.5t-16 37.5q0 25 17.5 44.5t49.5 19.5q28 0 42.5 -14.5t14.5 -36.5zM354 70q-14 -29 -57.5 -51.5t-86.5 -22.5q-42 0 -68.5 26t-26.5 78q0 15 3 32l39 226q1 5 1 15q0 25 -21 35q-12 6 -50 12l7 31q53 0 71 2
q44 5 71 21h32l-55 -334q-1 -6 -1 -12v-11q0 -32 13 -44t34 -12q22 0 42.5 9.5t29.5 22.5z" />
    <glyph glyph-name="j" unicode="j" horiz-adv-x="276" 
d="M311 604q0 -24 -23 -46t-52 -22q-23 0 -40 16t-17 38q0 27 20.5 49t60.5 22q21 0 36 -17.5t15 -39.5zM276 474l-95 -520q-15 -79 -98 -131q-73 -45 -152 -45q-48 0 -88 18q-52 23 -52 62q0 17 14.5 30.5t35.5 13.5q44 0 69 -37.5t55 -37.5q35 0 68 27q37 31 46 76l78 428
q2 12 2 16q0 34 -37 46q-26 6 -35 8l7 31l150 15h32z" />
    <glyph glyph-name="k" unicode="k" horiz-adv-x="597" 
d="M658 447q0 -23 -16 -40t-44 -17q-35 0 -60 19q-13 10 -28 10q-23 0 -55 -19q-27 -16 -53 -42q19 -100 29 -136q21 -75 49 -114q35 -48 85 -48q28 0 64 18l16 -32q-36 -29 -71 -42.5t-64 -13.5q-98 0 -151 125q-23 54 -44 172q-59 -70 -84 -120q-34 -66 -50 -167h-94
l94 591q1 5 1 13q0 25 -18.5 34.5t-53.5 14.5l8 31q47 0 79 4t63 20h39l-79 -483q95 131 172 195q97 81 188 81q33 0 55.5 -15.5t22.5 -38.5z" />
    <glyph glyph-name="l" unicode="l" horiz-adv-x="276" 
d="M354 70q-21 -35 -60 -54.5t-82 -19.5q-47 0 -79 26.5t-32 70.5q0 10 1 16l87 482q1 4 1 7v7q0 26 -19.5 33.5t-60.5 7.5l8 31q81 9 99 14t51 24h39l-102 -575q-1 -7 -1 -13v-7q0 -33 14.5 -51.5t36.5 -18.5q18 0 36 10.5t32 32.5z" />
    <glyph glyph-name="m" unicode="m" horiz-adv-x="873" 
d="M952 46q-11 -26 -45 -43.5t-73 -17.5q-46 0 -73 25q-31 28 -31 84q0 15 1 23l40 241q1 6 1 16q0 29 -19 44.5t-47 15.5q-34 0 -90 -21.5t-58 -31.5l-71 -381h-93l62 365q1 5 1 15q0 28 -16.5 43.5t-39.5 15.5q-28 0 -91 -25q-21 -8 -58 -25l-71 -389h-94l63 358q1 6 1 16
q0 23 -16 36t-56 18l8 31q50 7 73 12q42 8 68 19h40l-8 -54q45 25 80 40q53 22 92 22q37 0 68.5 -16t57.5 -54q40 27 95 46t103 19q49 0 80 -24.5t31 -76.5q0 -6 -1 -14t-1 -13l-39 -256q-4 -24 10 -46.5t33 -22.5q29 0 59 30z" />
    <glyph glyph-name="n" unicode="n" 
d="M676 62q-22 -31 -57.5 -48.5t-74.5 -17.5q-42 0 -68 23q-30 26 -30 73v12q2 9 2 13l39 256q1 4 1 12q0 26 -17.5 39.5t-44.5 13.5q-36 0 -104 -30t-70 -43l-63 -365h-95l63 373q4 24 -19 39.5t-51 15.5l7 31l134 31h40l-8 -70q41 32 99 53.5t108 21.5q54 0 85 -25.5
t31 -81.5v-14q-1 -6 -1 -9l-40 -241q-1 -4 -1 -12q0 -24 12.5 -42.5t32.5 -18.5q13 0 30 8.5t37 26.5z" />
    <glyph glyph-name="o" unicode="o" horiz-adv-x="534" 
d="M566 287q0 -139 -99 -224q-83 -71 -176 -71q-108 0 -168.5 53t-60.5 145q0 117 82 208.5t195 91.5q100 0 161 -51q66 -55 66 -152zM462 285q0 65 -26 106q-29 45 -82 45q-81 0 -135 -82q-48 -73 -48 -166q0 -62 26 -102t79 -40q87 0 139 78q47 70 47 161z" />
    <glyph glyph-name="p" unicode="p" horiz-adv-x="597" 
d="M626 303q0 -142 -94 -238q-83 -85 -177 -85q-48 0 -86.5 17.5t-63.5 48.5l-24 -139q-1 -6 -1 -16q0 -31 18 -50.5t54 -19.5l-8 -31h-260l8 31q56 9 71.5 28t23.5 65l78 444q1 6 1 16q0 29 -22 45q-14 11 -42 17l8 30l134 16h39l-23 -117q47 62 100.5 93t102.5 31
q70 0 116.5 -51.5t46.5 -134.5zM519 335q0 48 -25.5 72.5t-65.5 24.5q-59 0 -112 -46q-58 -51 -72 -129l-31 -164q22 -24 52.5 -38t62.5 -14q77 0 129 67q62 80 62 227z" />
    <glyph glyph-name="q" unicode="q" horiz-adv-x="558" 
d="M590 474l-103 -567q-3 -14 -3 -26q0 -35 25 -53q21 -15 57 -15l-8 -30h-275l8 30q38 0 65 28q23 24 30 58l38 202q-42 -60 -94 -91q-47 -28 -96 -28q-75 0 -127 57t-52 141q0 121 93 217q89 92 187 92q46 0 85 -18t67 -51l40 54h63zM479 389q-63 54 -120 54
q-81 0 -138 -96q-51 -86 -51 -187q0 -50 18 -85.5t48 -35.5q68 0 118 39q68 53 94 171z" />
    <glyph glyph-name="r" unicode="r" horiz-adv-x="394" 
d="M485 425q0 -17 -11.5 -28.5t-31.5 -11.5q-29 0 -45 11q-38 26 -49 26q-32 0 -63 -29t-41 -74l-63 -319h-94l63 350q1 7 1 14.5v10.5q0 29 -14 38t-58 15l8 31l149 23h40l-16 -62q44 32 85 49t68 17q36 0 56 -21q16 -17 16 -40z" />
    <glyph glyph-name="s" unicode="s" horiz-adv-x="534" 
d="M548 393q0 -16 -17 -30t-32 -14q-26 0 -57.5 48.5t-97.5 48.5q-43 0 -73 -21t-30 -50q0 -41 76 -70q70 -26 141 -51q76 -37 76 -99t-71 -113.5t-171 -51.5q-69 0 -140 28q-86 34 -86 81q0 24 13 35t37 11q38 0 78 -54t101 -54q51 0 90.5 23t39.5 57q0 53 -75 82
q-71 23 -141 47q-76 34 -76 98q0 61 47 101q54 46 155 46q77 0 140 -25q73 -29 73 -73z" />
    <glyph glyph-name="t" unicode="t" horiz-adv-x="339" 
d="M416 474l-8 -31h-140l-55 -311q-1 -8 -1 -22q0 -36 15.5 -53.5t41.5 -17.5q25 0 52.5 13t48.5 34l24 -32q-28 -32 -69.5 -48.5t-87.5 -16.5q-54 0 -91 26.5t-37 70.5q0 10 1 15l63 342h-86l7 31q56 0 98 35q57 48 68 152h47l-31 -187h140z" />
    <glyph glyph-name="u" unicode="u" 
d="M700 70q-25 -34 -68.5 -56t-85.5 -22q-40 0 -66.5 21t-31.5 65q-58 -43 -115 -65.5t-105 -22.5q-56 0 -88.5 29.5t-32.5 86.5q0 16 3 34l40 210q2 18 2 23q0 29 -13.5 38t-51.5 9l7 39l134 23h40l-55 -327q-3 -21 -3 -38q0 -37 17 -52.5t48 -15.5q35 0 80.5 20.5
t92.5 54.5l63 358h94l-55 -342q-1 -4 -1 -13q0 -27 13.5 -49.5t31.5 -22.5q31 0 74 38z" />
    <glyph glyph-name="v" unicode="v" horiz-adv-x="534" 
d="M563 359q0 -136 -79 -248q-92 -130 -238 -130q-57 0 -97.5 32.5t-40.5 83.5q0 6 2 20l40 248q5 29 -18 45q-15 11 -45 18l7 31q31 0 54 3t80 20h40l-55 -365q-4 -29 18 -51.5t53 -22.5q87 0 149.5 72.5t62.5 160.5q0 48 -55 98q-26 23 -26 52q0 24 19.5 44.5t45.5 20.5
q31 0 54 -28q29 -35 29 -104z" />
    <glyph glyph-name="w" unicode="w" horiz-adv-x="873" 
d="M890 362q0 -168 -95 -275q-89 -100 -213 -100q-50 0 -83.5 21t-42.5 62q-42 -36 -104 -60.5t-115 -24.5q-56 0 -87 23q-37 28 -37 86q0 18 5 46l39 210q2 12 2 17q0 42 -80 53l8 31q6 1 54 8t87 23h40l-55 -365q-5 -29 17 -50t56 -21q32 0 96 28t66 43l63 365h94
l-55 -342q-1 -6 -1 -16q0 -34 21 -54t54 -20q75 0 133 58q65 65 65 166q0 53 -40 99t-40 62q0 24 18.5 42.5t44.5 18.5q33 0 55 -25q30 -34 30 -109z" />
    <glyph glyph-name="x" unicode="x" horiz-adv-x="534" 
d="M623 443q0 -40 -63 -54q-79 -18 -96 -39l-94 -117q39 -93 57 -123q37 -60 78 -60q29 0 61 28l24 -32q-41 -34 -74 -48.5t-63 -14.5q-45 0 -81 34q-26 25 -41 61l-48 117q-55 -94 -113 -153.5t-102 -59.5q-30 0 -46 18t-16 41q0 29 20 39.5t49 10.5q19 -1 29 -1
q22 0 35.5 5t25.5 22l103 132l-50 102q-42 69 -92 69v31q24 0 57 6t61 17h39l71 -194q85 127 138 173q40 35 78 35q23 0 38 -11.5t15 -33.5z" />
    <glyph glyph-name="y" unicode="y" horiz-adv-x="597" 
d="M613 482l-86 -490q-19 -109 -108 -165q-75 -47 -179 -47q-79 0 -122 16q-58 21 -58 70q0 14 16 29t40 15q29 0 51 -26q50 -58 90 -58q86 0 135 79q39 64 56 181q-37 -40 -101 -67t-122 -27q-54 0 -90 29t-36 81q0 15 3 30l40 241q2 12 2 16q0 39 -73 39l8 31
q47 0 73.5 4.5t67.5 18.5h40l-55 -373q-4 -24 15.5 -39.5t50.5 -15.5q38 0 84 20q52 23 101 66l55 342h102z" />
    <glyph glyph-name="z" unicode="z" horiz-adv-x="519" 
d="M558 451l-377 -405q4 0 37 -2t58 -2q117 0 159 68q20 32 48 32q20 0 37 -15t14 -34q-6 -39 -36 -62q-40 -31 -120 -31h-323l-24 39l393 412q-22 2 -49 4t-47 2q-79 0 -113 -53t-61 -53q-18 0 -30 8q-18 12 -18 37q0 35 29 61q37 33 101 33l298 -8z" />
    <glyph glyph-name="braceleft" unicode="{" horiz-adv-x="354" 
d="M440 708l-8 -31q-88 -16 -115 -107q-14 -88 -28 -175q-21 -104 -92 -138q27 -10 38.5 -32.5t11.5 -54.5q0 -34 -12 -88q-27 -122 -27 -149q0 -41 18.5 -65.5t64.5 -30.5l-8 -32q-63 0 -101 29q-44 33 -44 100q0 34 16 113t16 115q0 38 -13 64t-47 39q77 11 104 127
l44 208q40 110 150 110q21 0 32 -2z" />
    <glyph glyph-name="bar" unicode="|" horiz-adv-x="597" 
d="M370 0h-87v715h87v-715z" />
    <glyph glyph-name="braceright" unicode="}" horiz-adv-x="378" 
d="M331 265q-77 -47 -99 -173q-30 -176 -39 -194q-44 -93 -185 -93l8 32q78 0 106 91q17 93 35 187q26 114 95 150q-24 15 -34.5 41.5t-10.5 61.5q0 37 11 93q25 127 25 140q0 38 -18 59q-21 24 -68 24l8 31l20 1q54 0 86 -27q42 -35 42 -108q0 -11 -21 -124
q-11 -59 -11 -91q0 -39 11 -64.5t39 -36.5z" />
    <glyph glyph-name="asciitilde" unicode="~" horiz-adv-x="597" 
d="M590 327q-27 -52 -60 -79q-38 -31 -86 -31q-40 0 -105 32.5t-102 32.5q-34 0 -61.5 -21t-49.5 -74l-47 54q24 53 58 83q42 38 98 38q52 0 120 -32.5t87 -32.5q28 0 48 16q6 4 52 68z" />
    <glyph glyph-name="Adieresis" unicode="&#xc4;" horiz-adv-x="692" 
 />
    <glyph glyph-name="Aring" unicode="&#xc5;" horiz-adv-x="692" 
 />
    <glyph glyph-name="Ccedilla" unicode="&#xc7;" horiz-adv-x="716" 
 />
    <glyph glyph-name="Eacute" unicode="&#xc9;" horiz-adv-x="676" 
 />
    <glyph glyph-name="Ntilde" unicode="&#xd1;" horiz-adv-x="785" 
 />
    <glyph glyph-name="Odieresis" unicode="&#xd6;" horiz-adv-x="755" 
 />
    <glyph glyph-name="Udieresis" unicode="&#xdc;" horiz-adv-x="716" 
 />
    <glyph glyph-name="aacute" unicode="&#xe1;" 
 />
    <glyph glyph-name="agrave" unicode="&#xe0;" 
 />
    <glyph glyph-name="acircumflex" unicode="&#xe2;" 
 />
    <glyph glyph-name="adieresis" unicode="&#xe4;" 
 />
    <glyph glyph-name="atilde" unicode="&#xe3;" 
 />
    <glyph glyph-name="aring" unicode="&#xe5;" 
 />
    <glyph glyph-name="ccedilla" unicode="&#xe7;" horiz-adv-x="471" 
 />
    <glyph glyph-name="eacute" unicode="&#xe9;" horiz-adv-x="534" 
 />
    <glyph glyph-name="egrave" unicode="&#xe8;" horiz-adv-x="534" 
 />
    <glyph glyph-name="ecircumflex" unicode="&#xea;" horiz-adv-x="534" 
 />
    <glyph glyph-name="edieresis" unicode="&#xeb;" horiz-adv-x="534" 
 />
    <glyph glyph-name="iacute" unicode="&#xed;" horiz-adv-x="276" 
 />
    <glyph glyph-name="igrave" unicode="&#xec;" horiz-adv-x="276" 
 />
    <glyph glyph-name="icircumflex" unicode="&#xee;" horiz-adv-x="276" 
 />
    <glyph glyph-name="idieresis" unicode="&#xef;" horiz-adv-x="276" 
 />
    <glyph glyph-name="ntilde" unicode="&#xf1;" 
 />
    <glyph glyph-name="oacute" unicode="&#xf3;" horiz-adv-x="534" 
 />
    <glyph glyph-name="ograve" unicode="&#xf2;" horiz-adv-x="534" 
 />
    <glyph glyph-name="ocircumflex" unicode="&#xf4;" horiz-adv-x="534" 
 />
    <glyph glyph-name="odieresis" unicode="&#xf6;" horiz-adv-x="534" 
 />
    <glyph glyph-name="otilde" unicode="&#xf5;" horiz-adv-x="534" 
 />
    <glyph glyph-name="uacute" unicode="&#xfa;" 
 />
    <glyph glyph-name="ugrave" unicode="&#xf9;" 
 />
    <glyph glyph-name="ucircumflex" unicode="&#xfb;" 
 />
    <glyph glyph-name="udieresis" unicode="&#xfc;" 
 />
    <glyph glyph-name="dagger" unicode="&#x2020;" 
d="M566 428q0 -52 -52 -52q-25 0 -55 9t-73 27q0 -22 13.5 -53t32.5 -56q-22 -32 -45 -66.5t-33 -73.5l-63 -295h-39l55 295q1 6 1 19q0 29 -7 63t-18 66q28 21 43 39q20 24 36 62q-37 -12 -73.5 -23.5t-58.5 -11.5q-20 0 -30.5 9.5t-10.5 33.5q0 32 14 45.5t40 13.5
q25 0 65 -13q1 0 62 -23q-3 35 -4 56q-6 68 -12 137q0 25 21.5 40.5t47.5 15.5t43 -10.5t17 -31.5q0 -19 -44 -114q-14 -32 -45 -93q40 11 78.5 22t57.5 11t27.5 -10.5t8.5 -37.5z" />
    <glyph glyph-name="degree" unicode="&#xb0;" horiz-adv-x="299" 
d="M339 638q0 -35 -26 -64.5t-69 -29.5q-31 0 -51 21t-20 49q0 35 26.5 64.5t68.5 29.5q29 0 50 -21t21 -49zM292 636q0 12 -7.5 18.5t-24.5 6.5t-28.5 -13.5t-11.5 -29.5q0 -11 10 -19t22 -8q15 0 27.5 14.5t12.5 30.5z" />
    <glyph glyph-name="cent" unicode="&#xa2;" 
d="M599 464q0 -31 -19 -53t-53 -22q-19 0 -30.5 11.5t-11.5 33.5q0 3 7 22q4 11 3 18q-2 23 -23 38.5t-40 15.5l-62 -373q42 0 77 16q47 22 80 70l39 -24q-19 -49 -74.5 -82.5t-129.5 -33.5l-23 -132h-40l24 132q-73 13 -121 54q-60 52 -60 137q0 104 57 187q72 105 203 105
l22 124h40l-24 -124q62 0 110.5 -35t48.5 -85zM394 528q-65 -19 -102.5 -79t-37.5 -151q0 -54 18.5 -90t58.5 -45z" />
    <glyph glyph-name="sterling" unicode="&#xa3;" 
d="M700 544q0 -41 -20.5 -68.5t-53.5 -27.5q-19 0 -31 7q-17 10 -17 28q0 4 25 45q13 21 13 35q0 28 -35.5 50.5t-82.5 22.5q-55 0 -94 -33q-47 -40 -65 -121q0 -20 0.5 -40t6.5 -45h165l-16 -47h-141q12 -58 12 -104q0 -39 -7.5 -67t-27.5 -55q94 -48 161 -48q74 0 74 56
q0 40 -43 40q-26 0 -59 -17l-16 32q23 14 49 22t50 8q42 0 66 -23.5t24 -76.5q0 -55 -52 -98t-108 -43q-53 0 -129 47q-25 15 -65 47q-27 -43 -74 -66t-96 -23q-50 0 -81.5 21t-31.5 60q0 55 42 86q37 27 92 27q29 0 61.5 -7.5t56.5 -19.5q2 9 2 20.5v17.5q0 39 -6 86
q-9 56 -12 78h-134l16 47h110q0 134 82 213q78 75 199 75q83 0 137 -38t54 -103zM228 93q-49 25 -94 25q-34 0 -54.5 -13.5t-20.5 -33.5q0 -16 15.5 -27.5t42.5 -11.5q34 0 63 14q35 17 48 47z" />
    <glyph glyph-name="section" unicode="&#xa7;" 
d="M637 552q0 -30 -9 -46q-14 -24 -46 -24q-54 0 -54 56q0 8 4 25t4 26q0 25 -32.5 42.5t-82.5 17.5q-71 0 -117.5 -33t-46.5 -76q0 -48 89 -76t175 -55q92 -44 92 -129q0 -36 -21 -71q-26 -44 -81 -77q30 -24 45.5 -54t15.5 -63q0 -78 -76 -133q-85 -61 -228 -61
q-95 0 -163 35q-74 38 -74 98q0 40 22.5 62.5t48.5 22.5q22 0 37.5 -14.5t15.5 -39.5q0 -8 -8 -27t-8 -30q0 -25 42 -45.5t102 -20.5q66 0 124 29q70 35 70 90q0 54 -97 85q-90 26 -180 53q-98 42 -98 122q0 63 50 111l68 52q-67 34 -67 115q0 70 61 117q73 56 210 56
q69 0 133 -32q80 -40 80 -108zM531 249q0 53 -153 100q-90 28 -118 48q-38 -36 -57 -65.5t-19 -51.5q0 -48 100 -78q93 -27 187 -54q31 31 45.5 56t14.5 45z" />
    <glyph glyph-name="bullet" unicode="&#x2022;" horiz-adv-x="456" 
d="M404 338q0 -69 -43 -115q-48 -52 -133 -52q-83 0 -131 51q-43 46 -43 114q0 72 44 122q49 56 130 56q82 0 131 -55q45 -51 45 -121z" />
    <glyph glyph-name="paragraph" unicode="&#xb6;" 
d="M723 669l-7 -39q-48 -6 -72.5 -24.5t-30.5 -53.5l-79 -451q-1 -5 -1 -13q0 -28 23 -40q18 -9 49 -9l-8 -39h-440l8 39q42 0 67 10q39 15 44 52l31 186l-29 -2q-82 0 -130 50q-44 46 -44 116q0 87 63 148q72 70 195 70h361zM527 622h-63l-102 -576h62z" />
    <glyph glyph-name="germandbls" unicode="&#xdf;" 
d="M653 217q0 -87 -90.5 -154t-192.5 -67q-42 0 -78 10t-72 33l32 31q44 -23 95 -23q81 0 139 49q64 54 64 145q0 49 -82.5 88t-82.5 76q0 18 119 102q56 40 56 82q0 25 -28.5 43.5t-66.5 18.5q-66 0 -116 -57q-44 -50 -50 -104l-71 -381q-14 -82 -85 -145q-76 -68 -169 -68
q-27 0 -53 6t-55 20l32 39q42 -13 72 -13q64 0 107 44q38 39 49 101l63 350h-63l8 39h63q18 101 87 158q73 60 187 60q72 0 120 -28q62 -36 62 -81q0 -59 -55 -101q-59 -34 -118 -67q70 -38 119 -86q54 -52 54 -120z" />
    <glyph glyph-name="registered" unicode="&#xae;" horiz-adv-x="786" 
d="M723 342q0 -159 -100.5 -258.5t-252.5 -99.5q-148 0 -251 107t-103 251q0 146 107 248t255 102q132 0 235 -96q110 -103 110 -254zM668 342q0 138 -104 224q-87 72 -186 72q-126 0 -216.5 -85.5t-90.5 -210.5q0 -136 97 -227q89 -84 202 -84q115 0 201 78q97 88 97 233z
M558 155q-22 -5 -36 -5q-59 0 -94.5 88.5t-112.5 88.5v-102q0 -35 5.5 -41.5t41.5 -12.5v-16h-157v16q17 3 35 7q12 7 12 47v234q0 35 -1 40q-5 22 -38 22v23h157q69 0 108 -33q35 -29 35 -72q0 -38 -28.5 -67.5t-76.5 -29.5q38 -11 75 -94q34 -77 75 -77v-16zM456 436
q0 41 -31 62.5t-68 21.5q-42 0 -42 -22v-140l34 -3q53 0 82 27q25 23 25 54z" />
    <glyph glyph-name="copyright" unicode="&#xa9;" horiz-adv-x="786" 
d="M723 319q0 -158 -110 -252q-97 -83 -227 -83q-135 0 -240 79q-122 92 -122 248q0 174 94.5 273.5t251.5 99.5q137 0 241 -98q112 -106 112 -267zM668 319q0 129 -86 224t-212 95q-114 0 -200 -81q-92 -87 -92 -216q0 -146 93 -231q86 -79 215 -79q113 0 197.5 85.5
t84.5 202.5zM534 233q-11 -41 -59 -72.5t-106 -31.5q-78 0 -132.5 57.5t-54.5 139.5q0 91 58 150t148 59q42 0 86 -11q34 -8 53 -18v-109h-32q-5 52 -39 79q-27 22 -62 22q-52 0 -90 -32q-48 -41 -48 -117q0 -68 25 -116q36 -69 113 -69q31 0 58.5 18t50.5 59z" />
    <glyph glyph-name="trademark" unicode="&#x2122;" horiz-adv-x="960" 
d="M944 265h-173v22q32 0 43.5 10.5t11.5 44.5v272l-150 -349h-8l-149 341v-264q0 -39 10.5 -47t44.5 -8v-22h-142v22q32 0 43.5 10.5t11.5 44.5v264q0 21 -7 32q-10 15 -32 15v24h110l134 -304l126 304h118v-24q-32 0 -39.5 -5t-7.5 -34v-272q0 -34 11.5 -44.5t43.5 -10.5
v-22zM378 576h-32q0 49 -19.5 59.5t-90.5 10.5v-304q0 -36 20 -48q12 -7 43 -7v-22h-189v22q34 0 46 9q17 12 17 46v304q-70 0 -87 -11t-23 -59h-32v101h347v-101z" />
    <glyph glyph-name="acute" unicode="&#xb4;" horiz-adv-x="456" 
d="M463 658q0 -16 -9.5 -30t-29.5 -22l-141 -62l-23 32l110 101q27 26 51 26q17 0 29.5 -13.5t12.5 -31.5z" />
    <glyph glyph-name="dieresis" unicode="&#xa8;" horiz-adv-x="590" 
d="M538 638q0 -28 -20 -49t-54 -21q-25 0 -38 15t-13 36q0 30 19 51.5t55 21.5q22 0 36.5 -16.5t14.5 -37.5zM376 642q0 -29 -20 -51.5t-57 -22.5q-23 0 -35.5 15.5t-12.5 36.5q0 29 20.5 50.5t59.5 21.5q22 0 33.5 -14.5t11.5 -35.5z" />
    <glyph glyph-name="AE" unicode="&#xc6;" horiz-adv-x="1212" 
 />
    <glyph glyph-name="Oslash" unicode="&#xd8;" horiz-adv-x="755" 
 />
    <glyph glyph-name="plusminus" unicode="&#xb1;" horiz-adv-x="597" 
d="M566 435h-219v-212h214l1 -76h-500l2 76h204v212h-213v78h213v209h79v-209h219v-78z" />
    <glyph glyph-name="yen" unicode="&#xa5;" 
d="M739 677l-8 -31q-76 -22 -92 -31q-24 -14 -42 -39l-102 -133h150l-8 -46h-173l-70 -102h227l-8 -46h-227l-24 -148q-1 -4 -1 -12q0 -23 15 -36q20 -18 64 -22l-8 -31h-282l7 31q46 6 58 10q38 13 45 60l23 148h-220l8 46h212l-31 102h-165l7 46h142l-39 117
q-12 36 -35.5 58t-59.5 28l8 31h276l-8 -31q-46 -10 -64 -23t-18 -31q0 -7 3 -16l71 -234l141 210q10 16 16 28.5t6 22.5q0 15 -14 25.5t-48 17.5l8 31h260z" />
    <glyph glyph-name="mu" unicode="&#xb5;" 
d="M700 70q-25 -34 -68.5 -56t-85.5 -22q-40 0 -66.5 21t-31.5 65q-58 -43 -115 -65.5t-105 -22.5q-55 0 -93 -85t-75 -85q-30 0 -30 27q0 16 41 145q27 84 39 148l40 210q2 18 2 23q0 29 -13.5 38t-51.5 9l7 39l134 23h40l-55 -327q-3 -21 -3 -38q0 -37 17 -52.5t48 -15.5
q35 0 80.5 20.5t92.5 54.5l63 358h94l-55 -342q-1 -4 -1 -13q0 -27 13.5 -49.5t31.5 -22.5q31 0 74 38z" />
    <glyph glyph-name="ordfeminine" unicode="&#xaa;" horiz-adv-x="432" 
d="M519 436q-17 -23 -41.5 -34.5t-49.5 -11.5q-28 0 -47 16t-19 45q-14 -27 -48.5 -44t-70.5 -17q-47 0 -77 27q-34 31 -34 90q0 64 46 121q52 65 126 65q24 0 45.5 -7t44.5 -25l8 23h62l-40 -210q-3 -15 5 -28t22 -13q20 0 44 18zM503 350l-8 -47h-401l8 47h401zM386 622
q-34 27 -64 27q-46 0 -84 -60q-34 -53 -34 -93q0 -29 15.5 -45.5t40.5 -16.5q34 0 63 28q33 32 47 90z" />
    <glyph glyph-name="ordmasculine" unicode="&#xba;" horiz-adv-x="394" 
d="M464 561q0 -69 -50 -121q-57 -59 -146 -59q-64 0 -96.5 35t-32.5 88q0 68 50 121q56 59 142 59q65 0 101 -38q32 -33 32 -85zM432 342l-8 -47h-330l8 47h330zM385 569q0 36 -9 53q-13 24 -45 24q-50 0 -84 -48q-30 -43 -30 -96q0 -34 15.5 -58t43.5 -24q47 0 80 50
q29 45 29 99z" />
    <glyph glyph-name="ae" unicode="&#xe6;" horiz-adv-x="873" 
 />
    <glyph glyph-name="oslash" unicode="&#xf8;" horiz-adv-x="534" 
 />
    <glyph glyph-name="questiondown" unicode="&#xbf;" horiz-adv-x="534" 
d="M450 431q0 -32 -21.5 -56.5t-58.5 -24.5q-30 0 -46.5 17.5t-16.5 42.5q0 31 23.5 55.5t63.5 24.5q26 0 41 -17t15 -42zM511 -39q0 -54 -53 -106q-73 -72 -206 -72q-86 0 -153 46q-75 52 -75 132q0 84 81 136l152 82q82 54 82 140h47q0 -120 -65 -175q-62 -36 -123 -71
q-66 -45 -66 -140q0 -42 34 -71t87 -29q58 0 105 24t47 61q0 7 -2 16q-5 23 -5 26q0 24 18 38t43 14q22 0 37 -13t15 -38z" />
    <glyph glyph-name="exclamdown" unicode="&#xa1;" horiz-adv-x="315" 
d="M304 433q0 -31 -23 -57t-61 -26q-28 0 -42.5 15.5t-14.5 38.5q0 33 22.5 59.5t58.5 26.5q30 0 45 -16t15 -41zM236 311l-16 -412q0 -52 -28.5 -81.5t-63.5 -29.5q-27 0 -45.5 17.5t-18.5 51.5q0 20 7 42l118 412h47z" />
    <glyph glyph-name="logicalnot" unicode="&#xac;" horiz-adv-x="954" 
d="M910 183l-58 -211q-4 -14 -9 -20q-12 -15 -37 -15q-7 0 -11 1v18q18 -4 30 8.5t12 33.5l-48 185h21l40 -149l39 149h21zM771 57q0 -32 -15 -48t-37 -16q-28 0 -41.5 22.5t-13.5 70.5q0 55 13.5 77.5t41.5 22.5q26 0 39.5 -21t13.5 -56q0 -13 -1 -20h-86q1 -26 3 -39
q8 -40 31 -40q18 0 26 15.5t6 31.5h20zM649 0h-26l-65 123l-27 -34v-89h-23v249h23v-124l87 124h29l-74 -105zM482 0q-6 -4 -16 -4q-12 0 -19 8q-10 11 -10 35v126h-18v18h18v55h21v-55h24v-18h-24v-131q0 -20 12 -20q2 0 12 4v-18zM413 233q-14 0 -18 -4t-4 -20v-26h21v-18
h-21v-165h-21v165h-22v18h22v29q0 20 7 28t36 11v-18zM329 115q0 -53 -7 -76q-14 -46 -55 -46q-32 0 -43 29t-11 88q0 25 7 42q13 33 47 36q62 0 62 -73zM185 70q0 -36 -21 -56t-51 -20q-29 0 -48 19q-22 22 -22 60h21q7 -58 51 -58q18 0 31 12q17 15 17 40q-1 6 -1 9
q-2 20 -57 43t-55 68q0 9 2 24t19.5 27.5t42.5 12.5q26 0 46 -16t20 -44h-24q0 19 -14.5 31.5t-33.5 12.5q-16 0 -26 -10t-10 -31q-4 -39 54.5 -62t58.5 -62zM751 107q0 34 -8.5 47t-23.5 13q-17 0 -25.5 -13.5t-8.5 -46.5h66zM310 91q0 38 -7 55q-10 24 -36 24
q-20 0 -27.5 -21.5t-7.5 -41.5q0 -47 2 -58q7 -39 33 -39q23 0 33 25t10 56z" />
    <glyph glyph-name="florin" unicode="&#x192;" 
d="M630 674q0 -17 -13.5 -32.5t-32.5 -15.5q-20 0 -60 40q-20 20 -40 20q-25 0 -48 -24t-28 -56l-22 -124h109l-8 -39h-109q-21 -129 -41 -258q-28 -157 -70 -232q-57 -101 -156 -101q-58 0 -95 19q-44 22 -44 65q0 29 18 40q11 7 29 7q36 0 52.5 -48.5t42.5 -48.5
q29 0 57.5 38.5t33.5 83.5l78 435h-102l8 39h102q20 147 80 201q53 48 148 48q56 0 83.5 -16t27.5 -41z" />
    <glyph glyph-name="guillemotleft" unicode="&#xab;" horiz-adv-x="299" 
d="M323 412l-79 -125l24 -139l-32 -24l-63 163l118 149zM213 412l-79 -125l23 -139l-31 -24l-63 163l118 149z" />
    <glyph glyph-name="guillemotright" unicode="&#xbb;" horiz-adv-x="299" 
d="M307 287l-118 -170l-32 23l79 147l-23 125l31 24zM197 287l-118 -170l-32 23l79 147l-24 125l32 24z" />
    <glyph glyph-name="ellipsis" unicode="&#x2026;" horiz-adv-x="999" 
d="M905 63q0 -30 -21.5 -54.5t-57.5 -24.5q-32 0 -48 16t-16 41q0 32 22 57.5t58 25.5q30 0 46.5 -17.5t16.5 -43.5zM570 63q0 -31 -20 -53q-23 -26 -63 -26q-27 0 -43 18t-16 43q0 32 21.5 55.5t61.5 23.5q28 0 43.5 -17.5t15.5 -43.5zM234 61q0 -30 -20.5 -53.5
t-56.5 -23.5q-31 0 -48.5 18.5t-17.5 44.5q0 32 21.5 54.5t60.5 22.5q29 0 45 -18t16 -45z" />
    <glyph glyph-name="nonbreakingspace" unicode="&#xa0;" horiz-adv-x="499" 
 />
    <glyph glyph-name="Agrave" unicode="&#xc0;" horiz-adv-x="692" 
 />
    <glyph glyph-name="Atilde" unicode="&#xc3;" horiz-adv-x="692" 
 />
    <glyph glyph-name="Otilde" unicode="&#xd5;" horiz-adv-x="755" 
 />
    <glyph glyph-name="OE" unicode="&#x152;" horiz-adv-x="1172" 
 />
    <glyph glyph-name="oe" unicode="&#x153;" horiz-adv-x="897" 
 />
    <glyph glyph-name="endash" unicode="&#x2013;" horiz-adv-x="495" 
d="M566 327l-32 -62h-510l31 62h511z" />
    <glyph glyph-name="emdash" unicode="&#x2014;" horiz-adv-x="999" 
d="M1062 335l-32 -62h-1006l31 62h1007z" />
    <glyph glyph-name="quotedblleft" unicode="&#x201c;" horiz-adv-x="432" 
d="M495 661q-35 -21 -52 -37q-23 -23 -35 -56q16 8 31 8q21 0 32.5 -15.5t11.5 -38.5q0 -28 -17.5 -49.5t-49.5 -21.5q-31 0 -47.5 18.5t-16.5 49.5q0 43 31 87q35 49 96 78zM339 661q-39 -19 -59 -37q-24 -22 -36 -56q17 8 33 8q20 0 31 -14.5t11 -35.5q0 -28 -18.5 -51.5
t-48.5 -23.5q-31 0 -48 20t-17 51q0 47 33 90q38 50 103 72z" />
    <glyph glyph-name="quotedblright" unicode="&#x201d;" horiz-adv-x="432" 
d="M457 627q0 -47 -33 -95q-37 -54 -101 -81l-16 23q28 22 56.5 45.5t38.5 48.5q-7 -3 -17.5 -5.5t-17.5 -2.5q-21 0 -33.5 14.5t-12.5 35.5q0 32 21.5 57t59.5 25q55 0 55 -65zM294 622q0 -46 -32 -90q-38 -52 -105 -81l-15 23q43 30 58 44q22 22 28 50q-15 -8 -30 -8
q-19 0 -30.5 15.5t-11.5 37.5q0 31 20.5 55t59.5 24q27 0 42.5 -19.5t15.5 -50.5z" />
    <glyph glyph-name="quoteleft" unicode="&#x2018;" horiz-adv-x="276" 
d="M339 677q-39 -23 -56 -39q-28 -26 -39 -62q20 14 37 14q19 0 30.5 -15.5t11.5 -37.5q0 -26 -19.5 -48.5t-51.5 -22.5q-33 0 -48.5 16.5t-15.5 44.5q0 48 35 96q39 54 100 77z" />
    <glyph glyph-name="quoteright" unicode="&#x2019;" horiz-adv-x="276" 
d="M285 632q0 -73 -64 -127q-21 -17 -64 -39l-15 24q21 14 43 29q28 24 43 65q-23 -12 -37 -12q-15 0 -24 9q-15 15 -15 42q0 32 19.5 50.5t53.5 18.5q27 0 43.5 -14t16.5 -46z" />
    <glyph glyph-name="divide" unicode="&#xf7;" horiz-adv-x="495" 
d="M363 450q0 -30 -20.5 -53.5t-56.5 -23.5q-29 0 -43.5 15.5t-14.5 37.5q0 30 23.5 58.5t50.5 28.5q28 0 44.5 -18.5t16.5 -44.5zM462 327l-25 -60h-413l25 60h413zM291 159q0 -30 -20.5 -53.5t-56.5 -23.5q-29 0 -43.5 15.5t-14.5 37.5q0 30 23.5 58.5t50.5 28.5
q28 0 44.5 -18.5t16.5 -44.5z" />
    <glyph glyph-name="ydieresis" unicode="&#xff;" horiz-adv-x="597" 
 />
    <glyph glyph-name="Ydieresis" unicode="&#x178;" horiz-adv-x="653" 
 />
    <glyph glyph-name="fraction" unicode="&#x2215;" horiz-adv-x="297" 
d="M467 804l-560 -803h-95l560 803h95z" />
    <glyph glyph-name="currency" unicode="&#xa4;" horiz-adv-x="597" 
d="M597 140l-55 -54l-55 54q-26 -25 -64 -38.5t-83 -13.5q-43 0 -81 13.5t-62 38.5l-55 -54l-55 54l55 55q-26 30 -38.5 65.5t-12.5 70.5q0 38 11.5 74.5t31.5 68.5l-55 54l55 56l55 -56q64 50 149 50q81 0 149 -50l55 56l55 -56l-55 -54q50 -56 50 -138q0 -39 -12 -74.5
t-38 -66.5zM501 329q0 65 -40 110q-45 51 -122 51q-74 0 -117 -50q-39 -45 -39 -109q0 -62 40 -104q45 -48 123 -48q75 0 117 46q38 41 38 104z" />
    <glyph glyph-name="guilsinglleft" unicode="&#x2039;" horiz-adv-x="173" 
d="M213 420l-71 -117l15 -163l-31 -16l-55 179l110 133z" />
    <glyph glyph-name="guilsinglright" unicode="&#x203a;" horiz-adv-x="173" 
d="M205 287l-111 -163l-31 16l71 147l-24 133l32 16z" />
    <glyph glyph-name="fi" unicode="&#xf001;" horiz-adv-x="645" 
d="M716 62q-26 -37 -61 -54.5t-72 -17.5q-44 0 -78.5 24t-34.5 61q0 7 1 11l48 287q3 18 3 31q0 27 -14 37t-52 10h-141l-79 -451q-29 -167 -158 -204q-67 -11 -78 -13q-83 0 -125 24q-35 20 -35 50q0 18 14.5 31.5t34.5 13.5q13 0 81 -53q33 -26 59 -26q36 0 62 31
q30 36 43 107l86 490h-86v39h94q13 107 64 166q58 67 164 67q59 0 127 -36.5t68 -78.5q0 -17 -12.5 -28.5t-30.5 -11.5q-26 0 -62 63t-99 63q-35 0 -61 -16.5t-32 -47.5l-31 -140h306l-63 -366q-1 -5 -1 -15q0 -26 15 -44t36 -18q39 0 68 39z" />
    <glyph glyph-name="fl" unicode="&#xf002;" horiz-adv-x="660" 
d="M716 70q-27 -34 -67.5 -55t-80.5 -21q-44 0 -71 24q-31 28 -31 84q0 18 5 46l87 466q1 3 1 6v5q0 32 -32.5 52t-72.5 20q-41 0 -74 -19t-41 -56l-24 -132h101v-31h-109l-71 -428q-15 -112 -79.5 -176.5t-156.5 -64.5q-86 0 -129 23q-36 19 -36 47q0 19 18 33t41 14
q20 0 74 -51q26 -25 45 -25q36 0 67 29.5t38 77.5l95 521h-87v31h94q13 133 88 192q62 49 174 49q49 0 108 -8h86l-102 -560q-4 -23 -4 -44q0 -33 12.5 -49.5t32.5 -16.5q17 0 38 11t39 29z" />
    <glyph glyph-name="daggerdbl" unicode="&#x2021;" 
d="M566 420q0 -24 -14.5 -42.5t-37.5 -18.5q-22 0 -50 9t-78 29q1 -2 18 -54q11 -33 28 -56q-20 -31 -42 -57q-28 -32 -44 -51q90 27 136 27q45 0 45 -35q0 -30 -14 -42.5t-42 -12.5q-24 0 -57 8.5t-75 23.5q8 -64 11 -97q12 -107 12 -121q0 -25 -23 -40.5t-51 -15.5
q-25 0 -41.5 11t-16.5 33q0 6 42 118q14 37 43 112q-29 -14 -62 -23t-60 -9t-40.5 8t-13.5 28q0 24 16 41t43 17q23 0 54 -8t71 -23q-8 30 -14 48q-10 30 -26 60q27 32 40 49q24 30 39 61l-78 -26q-35 -10 -53 -10t-30 15t-12 36q0 22 16 35t43 13q44 0 122 -32q-6 60 -8 91
q-8 94 -8 111q0 27 23.5 44t52.5 17q23 0 38 -9.5t15 -29.5q0 -24 -44 -126q-14 -34 -45 -98q5 1 75 21q39 11 59 11q17 0 27.5 -11.5t10.5 -28.5z" />
    <glyph glyph-name="periodcentered" unicode="&#xb7;" horiz-adv-x="299" 
d="M278 304q0 -36 -24.5 -58.5t-54.5 -22.5q-25 0 -44.5 16.5t-19.5 44.5q0 30 23 56t59 26q26 0 43.5 -16.5t17.5 -45.5z" />
    <glyph glyph-name="periodcentered" unicode="&#x2219;" horiz-adv-x="299" 
d="M278 304q0 -36 -24.5 -58.5t-54.5 -22.5q-25 0 -44.5 16.5t-19.5 44.5q0 30 23 56t59 26q26 0 43.5 -16.5t17.5 -45.5z" />
    <glyph glyph-name="quotesinglbase" unicode="&#x201a;" horiz-adv-x="285" 
d="M230 44q0 -44 -30 -85q-34 -47 -98 -76l-23 24q32 12 57 36t37 57q-22 -13 -39 -13q-19 0 -29 14.5t-10 36.5q0 31 18.5 55t51.5 24q31 0 48 -20t17 -53z" />
    <glyph glyph-name="quotedblbase" unicode="&#x201e;" horiz-adv-x="471" 
d="M394 51q0 -42 -32 -88q-35 -50 -94 -80l-24 24q37 18 59 41t28 52q-22 -13 -39 -13q-18 0 -27 13t-9 33q0 31 20.5 57.5t54.5 26.5q31 0 47 -18t16 -48zM230 44q0 -44 -30 -85q-34 -47 -98 -76l-23 24q32 12 57 36t37 57q-22 -13 -39 -13q-19 0 -29 14.5t-10 36.5
q0 31 18.5 55t51.5 24q31 0 48 -20t17 -53z" />
    <glyph glyph-name="perthousand" unicode="&#x2030;" horiz-adv-x="1172" 
d="M1196 255q0 -109 -61.5 -191t-146.5 -82q-61 0 -101 42q-44 46 -44 126q0 98 60 178q64 85 151 85q60 0 99 -39q43 -43 43 -119zM817 245q0 -102 -54 -176q-62 -85 -166 -85q-69 0 -104.5 48.5t-35.5 122.5q0 102 59 179q66 86 176 86q60 0 94 -53q31 -48 31 -122z
M716 684l-496 -684h-63l496 684h63zM409 524q0 -99 -58 -179q-64 -88 -154 -88q-64 0 -104 51.5t-40 122.5q0 98 58 176q63 85 157 85q62 0 101.5 -50t39.5 -118zM1117 259q0 54 -19 84t-49 30q-41 0 -86 -67q-49 -74 -49 -162q0 -56 21.5 -89t53.5 -33q53 0 90.5 72
t37.5 165zM740 252q0 57 -12 85q-15 36 -52 36q-67 0 -109 -73q-38 -65 -38 -149q0 -56 17.5 -91.5t58.5 -35.5q57 0 98 76q37 69 37 152zM337 528q0 55 -19 90t-58 35q-55 0 -93.5 -78t-38.5 -163q0 -51 17 -84t52 -33q60 0 102 78q38 71 38 155z" />
    <glyph glyph-name="Acircumflex" unicode="&#xc2;" horiz-adv-x="692" 
 />
    <glyph glyph-name="Ecircumflex" unicode="&#xca;" horiz-adv-x="676" 
 />
    <glyph glyph-name="Aacute" unicode="&#xc1;" horiz-adv-x="692" 
 />
    <glyph glyph-name="Edieresis" unicode="&#xcb;" horiz-adv-x="676" 
 />
    <glyph glyph-name="Egrave" unicode="&#xc8;" horiz-adv-x="676" 
 />
    <glyph glyph-name="Iacute" unicode="&#xcd;" horiz-adv-x="315" 
 />
    <glyph glyph-name="Icircumflex" unicode="&#xce;" horiz-adv-x="315" 
 />
    <glyph glyph-name="Idieresis" unicode="&#xcf;" horiz-adv-x="315" 
 />
    <glyph glyph-name="Igrave" unicode="&#xcc;" horiz-adv-x="315" 
 />
    <glyph glyph-name="Oacute" unicode="&#xd3;" horiz-adv-x="755" 
 />
    <glyph glyph-name="Ocircumflex" unicode="&#xd4;" horiz-adv-x="755" 
 />
    <glyph glyph-name="apple" unicode="&#xf000;" horiz-adv-x="1000" 
 />
    <glyph glyph-name="Ograve" unicode="&#xd2;" horiz-adv-x="755" 
 />
    <glyph glyph-name="Uacute" unicode="&#xda;" horiz-adv-x="716" 
 />
    <glyph glyph-name="Ucircumflex" unicode="&#xdb;" horiz-adv-x="716" 
 />
    <glyph glyph-name="Ugrave" unicode="&#xd9;" horiz-adv-x="716" 
 />
    <glyph glyph-name="dotlessi" unicode="&#x131;" horiz-adv-x="276" 
 />
    <glyph glyph-name="circumflex" unicode="&#x2c6;" horiz-adv-x="440" 
 />
    <glyph glyph-name="tilde" unicode="&#x2dc;" horiz-adv-x="440" 
 />
    <glyph glyph-name="macron" unicode="&#xaf;" horiz-adv-x="495" 
 />
    <glyph glyph-name="breve" unicode="&#x2d8;" horiz-adv-x="448" 
 />
    <glyph glyph-name="dotaccent" unicode="&#x2d9;" horiz-adv-x="1000" 
 />
    <glyph glyph-name="ring" unicode="&#x2da;" horiz-adv-x="299" 
 />
    <glyph glyph-name="cedilla" unicode="&#xb8;" horiz-adv-x="479" 
 />
    <glyph glyph-name="hungarumlaut" unicode="&#x2ba;" horiz-adv-x="1000" 
 />
    <glyph glyph-name="ogonek" unicode="&#x2db;" horiz-adv-x="1000" 
 />
    <glyph glyph-name="caron" unicode="&#x2c7;" horiz-adv-x="440" 
 />
    <glyph glyph-name="Lslash" unicode="&#x141;" horiz-adv-x="574" 
 />
    <glyph glyph-name="lslash" unicode="&#x142;" horiz-adv-x="276" 
 />
    <glyph glyph-name="Scaron" unicode="&#x160;" horiz-adv-x="637" 
 />
    <glyph glyph-name="scaron" unicode="&#x161;" horiz-adv-x="534" 
 />
    <glyph glyph-name="Zcaron" unicode="&#x17d;" horiz-adv-x="574" 
 />
    <glyph glyph-name="zcaron" unicode="&#x17e;" horiz-adv-x="519" 
 />
    <glyph glyph-name="brokenbar" unicode="&#xa6;" horiz-adv-x="597" 
d="M362 0h-79v708h79v-708z" />
    <glyph glyph-name="Eth" unicode="&#xd0;" horiz-adv-x="731" 
 />
    <glyph glyph-name="eth" unicode="&#xf0;" 
 />
    <glyph glyph-name="Yacute" unicode="&#xdd;" horiz-adv-x="653" 
 />
    <glyph glyph-name="yacute" unicode="&#xfd;" horiz-adv-x="597" 
 />
    <glyph glyph-name="Thorn" unicode="&#xde;" horiz-adv-x="1000" 
 />
    <glyph glyph-name="thorn" unicode="&#xfe;" horiz-adv-x="1000" 
 />
    <glyph glyph-name="minus" unicode="&#xad;" horiz-adv-x="495" 
d="M462 327l-25 -60h-413l25 60h413z" />
    <glyph glyph-name="multiply" unicode="&#xd7;" horiz-adv-x="597" 
d="M556 125l-56 -56l-159 159l-150 -150l-56 55l151 151l-148 147l56 56l148 -148l155 155l55 -55l-155 -155z" />
    <glyph glyph-name="onesuperior" unicode="&#xb9;" horiz-adv-x="489" 
d="M330 344l-5 -17h-210l5 17q40 5 49 8q25 9 28 34l48 228q2 12 2 16q0 25 -25 27t-44 4l5 17l114 21h28l-61 -296q-2 -16 -2 -20q0 -27 15 -33t53 -6z" />
    <glyph glyph-name="twosuperior" unicode="&#xb2;" 
d="M360 606q0 -71 -89 -144q-65 -53 -148 -89h131q30 0 50 22q5 5 24 39l21 -8l-45 -99h-242l8 41q89 47 152 104q77 70 77 128q0 31 -19.5 47.5t-48.5 16.5t-52 -13.5t-23 -34.5q0 -5 3.5 -15.5t3.5 -14.5q0 -12 -9.5 -23.5t-22.5 -11.5q-14 0 -23 10t-9 24q0 43 43.5 74.5
t104.5 31.5q47 0 80 -21.5t33 -63.5z" />
    <glyph glyph-name="threesuperior" unicode="&#xb3;" 
d="M357 616q0 -33 -27.5 -58.5t-71.5 -25.5q45 -9 67 -29.5t22 -47.5q0 -44 -49.5 -83t-117.5 -39q-52 0 -88.5 21.5t-36.5 52.5q0 16 13 29t30 13q10 0 17 -5t7 -15q0 -4 -6 -15t-6 -19q0 -13 19 -21.5t47 -8.5q58 0 85 29q22 24 22 66q0 58 -82 58l-29 -2l3 24q47 0 80 15
q42 19 42 55q0 26 -9 38q-13 18 -47 18q-27 0 -53 -13t-26 -27q4 -13 4 -18q0 -14 -11 -23t-26 -9q-25 0 -25 27q0 39 40.5 64t105.5 25q52 0 79.5 -23t27.5 -53z" />
    <glyph glyph-name="onehalf" unicode="&#xbd;" horiz-adv-x="964" 
d="M864 278q0 -71 -89 -144q-65 -53 -148 -89h131q30 0 50 22q5 5 24 39l21 -8l-45 -99h-242l8 41q89 47 152 104q77 70 77 128q0 31 -19.5 47.5t-48.5 16.5t-52 -13.5t-23 -34.5q0 -5 3.5 -15.5t3.5 -14.5q0 -12 -9.5 -23.5t-22.5 -11.5q-14 0 -23 10t-9 24q0 43 43.5 74.5
t104.5 31.5q47 0 80 -21.5t33 -63.5zM802 801l-560 -803h-95l560 803h95zM318 376l-5 -17h-210l5 17q40 5 49 8q25 9 28 34l48 228q2 12 2 16q0 25 -25 27t-44 4l5 17l114 21h28l-61 -296q-2 -16 -2 -20q0 -27 15 -33t53 -6z" />
    <glyph glyph-name="onequarter" unicode="&#xbc;" horiz-adv-x="972" 
d="M318 376l-5 -17h-210l5 17q40 5 49 8q25 9 28 34l48 228q2 12 2 16q0 25 -25 27t-44 4l5 17l114 21h28l-61 -296q-2 -16 -2 -20q0 -27 15 -33t53 -6zM848 132l-15 -34h-79q-8 -26 -8 -41q0 -41 53 -41l-5 -17h-188l5 17q78 0 85 82h-198l-10 25l256 244h65l-50 -235h89z
M734 321l-197 -189h164zM819 792l-560 -803h-95l560 803h95z" />
    <glyph glyph-name="threequarters" unicode="&#xbe;" horiz-adv-x="920" 
d="M341 636q0 -33 -25.5 -58.5t-66.5 -25.5q42 -8 62.5 -29t20.5 -48q0 -45 -45.5 -83.5t-110.5 -38.5q-49 0 -82.5 21t-33.5 53q0 16 12 29t28 13q22 0 22 -20q0 -4 -5.5 -16t-5.5 -18q0 -13 17.5 -21.5t43.5 -8.5q54 0 79 29q21 24 21 66q0 58 -76 58l-27 -2l3 24
q43 0 74 15q39 19 39 55q0 26 -8 38q-12 18 -44 18q-24 0 -49 -13t-25 -27q4 -13 4 -18q0 -13 -10.5 -22.5t-23.5 -9.5q-24 0 -24 27q0 39 38 64t98 25q49 0 76 -24q24 -21 24 -52zM778 131l-14 -34h-72q-7 -22 -7 -40q0 -22 12 -32t36 -10l-5 -17h-171l5 17q70 0 77 82
h-181l-9 25l234 244h59l-45 -235h81zM674 320l-180 -189h149zM800 803l-560 -803h-95l560 803h95z" />
    </font>
</defs>
</svg>
