<?xml version="1.0" standalone="no"?>
<!DOCTYPE svg PUBLIC "-//W3C//DTD SVG 1.1//EN" "http://www.w3.org/Graphics/SVG/1.1/DTD/svg11.dtd" >
<svg>
<metadata>
Created by FontForge 20120731 at Mon Dec 23 09:30:29 2019
 By www
More KeyFonts TM SoftKey Software Products, Inc.  Copyright (c)1993 W.S.I.  All Rights Reserved.  Redistribution strictly prohibited.  RWE
</metadata>
<defs>
<font id="BookplateBold" horiz-adv-x="653" >
  <font-face 
    font-family="Bookplate"
    font-weight="7"
    font-stretch="normal"
    units-per-em="1000"
    panose-1="0 0 0 0 0 0 0 0 0 0"
    ascent="800"
    descent="-200"
    x-height="498"
    cap-height="677"
    bbox="-210 -249 1337 803"
    underline-thickness="50"
    underline-position="-75"
    unicode-range="U+0020-F002"
  />
<missing-glyph horiz-adv-x="800" 
d="M50 0v800h700v-800h-700zM700 50v700h-600v-700h600z" />
    <glyph glyph-name=".notdef" horiz-adv-x="800" 
d="M50 0v800h700v-800h-700zM700 50v700h-600v-700h600z" />
    <glyph glyph-name=".null" horiz-adv-x="0" 
 />
    <glyph glyph-name="nonmarkingreturn" horiz-adv-x="339" 
 />
    <glyph glyph-name="space" unicode=" " horiz-adv-x="339" 
 />
    <glyph glyph-name="exclam" unicode="!" horiz-adv-x="354" 
d="M283 560l-55 -343h-78q-17 89 -46 248q-7 40 -17 95q-2 14 -2 21q0 46 32 78t69 32q40 0 69 -31t29 -81q0 -12 -1 -19zM283 93q0 -52 -27 -78q-23 -22 -61 -22q-34 0 -63.5 27.5t-29.5 65.5q0 41 27.5 63.5t66.5 22.5q34 0 60.5 -22.5t26.5 -56.5z" />
    <glyph glyph-name="quotedbl" unicode="&#x22;" horiz-adv-x="416" 
d="M370 591l-47 -233h-47l-48 233q-1 4 -1 11q0 29 24.5 51.5t52.5 22.5t48.5 -17.5t20.5 -46.5q0 -10 -3 -21zM150 591l-48 -233h-47l-47 233q-1 3 -1 6v5q0 28 25.5 52.5t52.5 24.5q28 0 47 -20t19 -53q0 -10 -1 -15z" />
    <glyph glyph-name="numbersign" unicode="#" horiz-adv-x="597" 
d="M550 389h-102l-8 -78h87v-94h-103l-30 -217h-95l32 217h-79l-32 -217h-94l31 217h-94v94h110l8 78h-94v93h110l23 195h95l-24 -195h79l32 195h93l-31 -195h86v-93zM354 389h-78l-8 -78h78z" />
    <glyph glyph-name="dollar" unicode="$" 
d="M628 226q0 -81 -77 -141.5t-173 -60.5v-141h-71v141q-142 0 -206 56q-47 41 -47 103q0 43 25 64q21 17 55 17q30 0 52.5 -18t22.5 -49q0 -60 24.5 -79t102.5 -19q55 0 99 23t44 57q0 60 -103.5 88.5t-203.5 56.5q-108 47 -108 149q0 73 60 127q68 61 183 61v132h63v-132
q106 0 170 -47q55 -41 55 -93q0 -28 -20.5 -46.5t-48.5 -18.5q-58 0 -74 65.5t-109 65.5q-49 0 -89.5 -20.5t-40.5 -52.5q0 -55 107 -82q180 -45 200 -54q108 -48 108 -152z" />
    <glyph glyph-name="percent" unicode="%" horiz-adv-x="936" 
d="M934 202q0 -87 -47 -145q-53 -65 -148 -65t-151 67q-50 60 -50 148q0 89 50 151q56 70 151 70q90 0 145 -71q50 -65 50 -155zM731 677l-424 -677h-94l424 677h94zM404 480q0 -85 -46 -142q-52 -65 -145 -65q-98 0 -153 64q-49 57 -49 144q0 88 49 150q55 69 145 69
q93 0 149 -69q50 -62 50 -151zM810 205q0 61 -19 107t-52 46q-36 0 -55 -45t-19 -109q0 -63 18.5 -106.5t55.5 -43.5q33 0 52 45t19 106zM278 486q0 58 -17 101t-48 43q-36 0 -55 -43.5t-19 -105.5q0 -61 18.5 -103.5t55.5 -42.5q31 0 48 44t17 107z" />
    <glyph glyph-name="ampersand" unicode="&#x26;" horiz-adv-x="794" 
d="M771 0q-21 -2 -33.5 -3t-37.5 -1q-68 0 -124 12q-69 15 -105 46q-48 -37 -101.5 -55.5t-103.5 -18.5q-104 0 -179.5 64.5t-75.5 152.5q0 56 35.5 109.5t110.5 97.5q-50 53 -50 122t50 115q55 51 150 51q89 0 137 -46q43 -41 43 -103q0 -47 -24.5 -85t-68.5 -54l117 -147
q13 23 22.5 48t9.5 46q0 23 -13 38t-43 15v78h260v-78q-46 -7 -66 -16q-31 -14 -37 -51t-23 -84q-21 -59 -47 -90q36 -50 95 -67q36 -10 102 -10v-86zM368 548q0 43 -53 43q-19 0 -32 -13t-13 -34q0 -18 11 -38t34 -40q26 18 39.5 40t13.5 42zM402 132q-37 55 -77 104
q-43 54 -89 99q-17 -12 -29 -39.5t-12 -66.5q0 -58 28.5 -97.5t84.5 -39.5q57 0 94 40z" />
    <glyph glyph-name="quotesingle" unicode="'" horiz-adv-x="315" 
d="M240 601q0 -44 -29.5 -90.5t-76.5 -74.5l-47 46l55 54q-34 4 -52 25t-18 47q0 34 22 60t56 26q33 0 61.5 -28.5t28.5 -64.5z" />
    <glyph glyph-name="parenleft" unicode="(" horiz-adv-x="315" 
d="M291 -148q-157 21 -209 138q-32 72 -32 230q0 205 11 290q16 122 65 177q54 60 165 60v-94q-68 -26 -89 -126q-13 -63 -13 -232q0 -163 15 -229q22 -97 87 -112v-102z" />
    <glyph glyph-name="parenright" unicode=")" horiz-adv-x="315" 
d="M268 295q0 -273 -78 -373q-55 -70 -174 -70v94q69 10 93 105q17 68 17 229q0 118 -4 171q-7 88 -28 135q-26 56 -78 67v94q76 0 114 -18q64 -30 97 -119q41 -109 41 -315z" />
    <glyph glyph-name="asterisk" unicode="*" horiz-adv-x="456" 
d="M403 440q0 -18 -15 -35t-33 -17q-40 0 -87 71l-16 -8q13 -23 19.5 -45.5t6.5 -40.5q0 -54 -42 -54q-50 0 -50 56q0 32 19 84l-16 8q-47 -71 -91 -71q-16 0 -29 16t-13 34q0 26 30.5 43t86.5 17v16q-61 0 -90.5 18.5t-29.5 44.5q0 18 13 35t36 17q19 0 41 -17.5t46 -59.5
l16 8q-25 53 -25 90q0 50 48 50q46 0 46 -55q0 -35 -22 -85l16 -8q25 37 48 54t41 17q20 0 31.5 -16t11.5 -34q0 -29 -30.5 -44t-86.5 -15v-16q56 0 88 -16t32 -42z" />
    <glyph glyph-name="plus" unicode="+" horiz-adv-x="597" 
d="M558 195h-196v-195h-118v195h-197v116h197v195h118v-195h196v-116z" />
    <glyph glyph-name="comma" unicode="," horiz-adv-x="339" 
d="M257 70q0 -51 -31 -105.5t-84 -88.5l-55 54l63 70q-41 0 -60.5 20.5t-19.5 52.5q0 38 24 68t63 30q50 0 75 -28t25 -73z" />
    <glyph glyph-name="hyphen" unicode="-" horiz-adv-x="354" 
d="M339 319l-48 -109h-275l47 109h276z" />
    <glyph glyph-name="period" unicode="." horiz-adv-x="339" 
d="M257 90q0 -33 -27.5 -61.5t-64.5 -28.5q-39 0 -66.5 27.5t-27.5 63.5q0 39 24.5 67.5t69.5 28.5q41 0 68 -31q24 -28 24 -66z" />
    <glyph glyph-name="slash" unicode="/" horiz-adv-x="597" 
d="M558 731l-377 -879h-142l377 879h142z" />
    <glyph glyph-name="zero" unicode="0" 
d="M645 342q0 -147 -76 -251q-84 -115 -223 -115q-146 0 -236 117q-82 107 -82 256q0 139 77 239q86 112 226 112q153 0 239 -112q75 -98 75 -246zM452 337q0 108 -29 180q-33 82 -92 82q-51 0 -81.5 -81t-30.5 -189q0 -106 28 -173q32 -78 92 -78q54 0 85 80q28 72 28 179z
" />
    <glyph glyph-name="one" unicode="1" 
d="M566 0h-432v86q61 0 83 6q43 12 43 48v388q0 18 -23 21.5t-50 3.5q-14 0 -27 -0.5t-26 -0.5v94q67 0 123.5 6.5t128.5 24.5h54v-522q0 -45 24 -59q17 -10 70 -10h32v-86z" />
    <glyph glyph-name="two" unicode="2" 
d="M629 217l-71 -217h-503l-16 109q100 67 152 107q89 68 138 131q61 77 61 145q0 50 -32 79t-76 29q-40 0 -70 -15.5t-30 -38.5q0 -11 9 -23q22 -29 22 -56q0 -31 -22.5 -51.5t-58.5 -20.5q-37 0 -60 21q-29 27 -29 85q0 86 85 141q79 51 192 51q119 0 201 -64
q76 -59 76 -133q0 -95 -108 -198q-99 -95 -237 -150h180q36 0 61.5 20.5t48.5 72.5z" />
    <glyph glyph-name="three" unicode="3" 
d="M628 207q0 -89 -84 -158q-90 -74 -223 -74q-117 0 -197 43q-93 50 -93 137q0 37 27.5 65.5t59.5 28.5q34 0 60 -21.5t26 -54.5q0 -6 -4.5 -20.5t-4.5 -20.5q0 -19 34.5 -36t75.5 -17q47 0 80 25q39 30 39 83t-28 84q-38 42 -124 42h-19t-25 -2v93q82 0 127.5 23t45.5 70
t-28 70t-72 23q-37 0 -65 -13.5t-28 -33.5q0 -9 9.5 -29t9.5 -28q0 -30 -25.5 -52t-60.5 -22q-37 0 -64.5 26.5t-27.5 66.5q0 75 81 131.5t198 56.5q102 0 182 -51q86 -55 86 -134q0 -50 -29 -91t-72 -52q67 -23 100 -64.5t33 -93.5z" />
    <glyph glyph-name="four" unicode="4" 
d="M645 265l-40 -102h-102q0 -52 25 -67q16 -10 62 -10v-86h-338v86q49 0 65 11q22 16 22 66h-284l-39 78l330 436h157v-412h142zM339 265v249l-174 -249h174z" />
    <glyph glyph-name="five" unicode="5" 
d="M629 257q0 -139 -102 -210q-86 -60 -225 -60q-123 0 -188.5 45t-65.5 124q0 40 27.5 62.5t63.5 22.5q35 0 61 -21t26 -56q0 -6 -4 -22t-4 -20q0 -18 21.5 -31t52.5 -13q62 0 97 42.5t35 104.5q0 60 -36.5 105t-91.5 45q-34 0 -69 -22.5t-70 -72.5l-78 23v381h337
q31 0 45.5 7t33.5 32h79l-32 -187h-361v-108q72 45 174 45q111 0 187 -52q87 -59 87 -164z" />
    <glyph glyph-name="six" unicode="6" 
d="M637 217q0 -99 -79 -166q-88 -75 -243 -75q-141 0 -222 108q-72 97 -72 236q0 157 77 254q88 111 255 111q97 0 168 -33q81 -38 81 -103q0 -32 -21.5 -57.5t-61.5 -25.5q-70 0 -82 66.5t-71 66.5q-75 0 -118 -57t-43 -161q39 32 84.5 47.5t92.5 15.5q102 0 178.5 -64.5
t76.5 -162.5zM453 208q0 54 -29 92q-32 42 -85 42q-57 0 -89.5 -41t-32.5 -97q0 -52 32.5 -89t89.5 -37q58 0 88 41q26 35 26 89z" />
    <glyph glyph-name="seven" unicode="7" 
d="M629 568q-56 -56 -110 -132q-69 -98 -108 -197q-49 -124 -49 -239h-205q0 109 85.5 255.5t236.5 296.5h-274q-32 0 -52 -19.5t-43 -81.5l-86 15l39 218h550z" />
    <glyph glyph-name="eight" unicode="8" 
d="M638 217q0 -90 -76 -158q-84 -75 -216 -75q-149 0 -236 64q-78 58 -78 142q0 47 27 88.5t83 71.5q-37 20 -57 59.5t-20 84.5q0 86 69 147q77 68 205 68q119 0 192 -59q67 -54 67 -128q0 -40 -24 -75t-71 -58q66 -24 102 -72q33 -45 33 -100zM458 520q0 38 -41 62.5
t-90 24.5q-40 0 -70.5 -23t-30.5 -46q0 -33 54 -64q42 -24 114 -46q32 24 48 48t16 44zM471 171q0 44 -77 76l-142 56q-42 -30 -61.5 -58.5t-19.5 -53.5q0 -47 51 -77t117 -30q50 0 91 25.5t41 61.5z" />
    <glyph glyph-name="nine" unicode="9" 
d="M640 344q0 -152 -80 -250q-91 -112 -259 -112q-115 0 -180.5 36.5t-65.5 101.5q0 32 20 57t51 25q47 0 70.5 -19.5t23.5 -65.5q0 -19 18 -30t46 -11q62 0 111 45q61 56 61 159q-50 -31 -100.5 -46.5t-94.5 -15.5q-106 0 -174 75q-63 69 -63 165q0 99 68 165q79 77 223 77
q156 0 245 -111q80 -99 80 -245zM440 462q0 56 -29 94q-32 43 -88 43q-57 0 -89.5 -41t-32.5 -96q0 -52 29 -87q34 -40 93 -40q57 0 89 39q28 35 28 88z" />
    <glyph glyph-name="colon" unicode=":" horiz-adv-x="339" 
d="M263 417q0 -38 -23 -62q-27 -28 -75 -28q-47 0 -70.5 24.5t-23.5 63.5q0 38 25.5 68.5t68.5 30.5q45 0 73 -31q25 -28 25 -66zM263 83q0 -37 -24 -62q-27 -29 -74 -29t-71 25.5t-24 63.5q0 40 25.5 69t69.5 29q46 0 72 -29t26 -67z" />
    <glyph glyph-name="semicolon" unicode=";" horiz-adv-x="339" 
d="M264 416q0 -36 -26.5 -66.5t-64.5 -30.5q-41 0 -71.5 29.5t-30.5 68.5q0 35 26 62t68 27q47 0 73 -27t26 -63zM262 57q0 -53 -31 -105q-34 -57 -89 -84l-48 54l56 62q-34 0 -53 26t-19 60q0 39 21 64q25 29 74 29q43 0 66 -30t23 -76z" />
    <glyph glyph-name="less" unicode="&#x3c;" horiz-adv-x="597" 
d="M558 -16l-511 226v109l511 217v-116l-353 -163l353 -148v-125z" />
    <glyph glyph-name="equal" unicode="=" horiz-adv-x="597" 
d="M558 303h-503v117h503v-117zM558 109h-503v116h503v-116z" />
    <glyph glyph-name="greater" unicode="&#x3e;" horiz-adv-x="597" 
d="M550 202l-503 -218v125l347 148l-355 163v124l511 -233v-109z" />
    <glyph glyph-name="question" unicode="?" 
d="M600 495q0 -89 -53 -137q-1 -1 -99 -62q-54 -34 -54 -86h-111l-3 39q0 64 90 152q42 41 42 92q0 44 -27 75.5t-75 31.5q-39 0 -70.5 -15.5t-31.5 -39.5q0 -10 11 -28t11 -39q0 -30 -27 -49t-62 -19q-47 0 -67.5 24t-20.5 67q0 90 88 143q79 48 193 48q117 0 184 -41
q82 -50 82 -156zM439 84q0 -38 -23 -63q-26 -29 -70 -29q-46 0 -72 27t-26 64q0 34 27 65t64 31q47 0 75 -30q25 -27 25 -65z" />
    <glyph glyph-name="at" unicode="@" horiz-adv-x="818" 
d="M755 404q0 -111 -71.5 -191.5t-155.5 -80.5q-27 0 -51.5 11.5t-44.5 35.5q-40 -49 -109 -49q-53 0 -91 34q-43 38 -43 101q0 104 70 189t156 85q30 0 55.5 -11.5t40.5 -37.5l8 31h102l-94 -304q-3 -9 4.5 -16.5t18.5 -7.5q41 0 81 45q51 57 51 150q0 86 -61 153
q-74 81 -201 81q-112 0 -192 -70q-90 -79 -90 -214q0 -124 78.5 -205.5t204.5 -81.5q79 0 150.5 33t112.5 95h63q-11 -52 -83 -116q-99 -87 -232 -87q-166 0 -273.5 104.5t-107.5 259.5q0 139 95 241q103 111 262 111q142 0 244.5 -84.5t102.5 -203.5zM479 412q1 5 1 15
q0 25 -11.5 40.5t-32.5 15.5q-46 0 -95 -79.5t-49 -149.5q0 -34 15 -54.5t37 -20.5q25 0 48.5 24.5t39.5 76.5z" />
    <glyph glyph-name="A" unicode="A" horiz-adv-x="716" 
d="M763 0h-369v86q53 7 55 8q22 7 22 31q0 16 -7 38l-24 78h-220l-23 -86q-3 -14 -3 -23q0 -31 35 -39q11 -2 47 -7v-86h-315v86q59 14 73 22q29 16 45 63l212 506h157l197 -482q26 -68 56 -90q17 -12 62 -19v-86zM402 335l-71 179l-71 -179h142z" />
    <glyph glyph-name="B" unicode="B" horiz-adv-x="716" 
d="M691 187q0 -75 -48 -128q-54 -59 -148 -59h-479v86q44 8 54 15q24 17 24 70v350q0 38 -21 53q-15 11 -57 17v86h400q115 0 182 -58q60 -52 60 -126q0 -44 -23.5 -82.5t-68.5 -60.5q59 -10 92 -56.5t33 -106.5zM482 496q0 36 -40 56t-90 20q-32 0 -54 -9.5t-22 -26.5v-132
l44 -1q77 0 107 11q55 20 55 82zM503 187q0 72 -48 98q-34 19 -113 19l-66 -1v-171q0 -20 23.5 -30.5t60.5 -10.5q55 0 95 22q48 27 48 74z" />
    <glyph glyph-name="C" unicode="C" horiz-adv-x="731" 
d="M731 187q-49 -105 -140 -159q-82 -49 -186 -49q-154 0 -261 93q-117 102 -117 270q0 150 100 248t242 98q101 0 173 -42l8 23h63l95 -241l-87 -24q-30 72 -94 125q-68 56 -135 56q-74 0 -117.5 -70t-43.5 -183q0 -100 44 -170q50 -80 138 -80q61 0 117 32q72 41 107 119z
" />
    <glyph glyph-name="D" unicode="D" horiz-adv-x="779" 
d="M744 332q0 -137 -80 -229q-90 -103 -248 -103h-400v86q52 14 59 20q19 16 19 73v327q0 51 -25 66q-38 12 -61 19v86h408q153 0 245 -108q83 -98 83 -237zM545 339q0 127 -70 189q-54 48 -135 48q-30 0 -47 -9.5t-17 -30.5v-388q0 -26 20 -39t52 -13q80 0 134 57
q63 67 63 186z" />
    <glyph glyph-name="E" unicode="E" horiz-adv-x="716" 
d="M723 241l-110 -241h-597v86q44 6 53 11q27 14 27 56v12q-2 9 -2 14v342q0 43 -19 56.5t-59 13.5v86h581l95 -203l-71 -38q-41 71 -124 112q-72 36 -142 36q-36 0 -57.5 -10t-21.5 -30v-124q12 0 23.5 -0.5t23.5 -0.5q40 0 56 16q23 23 23 86h77v-311h-77q0 65 -28 92
q-22 21 -61 21q-9 0 -19 -1q-4 0 -18 -3v-164q0 -31 23 -47t61 -16q74 0 159 50q94 55 134 138z" />
    <glyph glyph-name="F" unicode="F" horiz-adv-x="676" 
d="M692 474l-79 -38q-43 72 -115 113q-65 37 -124 37q-38 0 -60.5 -15t-22.5 -43v-116q24 -3 44 -3q40 0 57.5 16.5t17.5 61.5v15q-2 13 -2 19h79v-326h-79v37q0 42 -10 55q-14 19 -61 19q-19 0 -46 -3v-140q0 -44 28 -59q21 -11 67 -11v-93h-362v93q32 4 64 9q22 10 22 61
v343q0 51 -15.5 65t-70.5 20v86h566z" />
    <glyph glyph-name="G" unicode="G" horiz-adv-x="779" 
d="M779 273q-51 -7 -60 -13q-19 -12 -19 -50v-210h-118l-24 54q-38 -33 -88.5 -50t-104.5 -17q-164 0 -254 111q-81 100 -81 255q0 140 82 235q94 109 262 109q47 0 91.5 -10.5t84.5 -33.5l8 31h63l71 -225l-79 -31q-41 75 -101 121t-121 46q-62 0 -105 -54
q-55 -69 -55 -204q0 -103 34 -166q41 -76 124 -76q74 0 113 44q30 34 30 76q0 58 -84 58v85h331v-85z" />
    <glyph glyph-name="H" unicode="H" horiz-adv-x="818" 
d="M802 0h-362v86q33 0 55 8q32 12 32 38v187h-236v-171q0 -34 17.5 -45t69.5 -17v-86h-362v86q49 5 57 8q37 12 37 69v373q0 41 -46 49l-48 6v86h362v-86q-51 -9 -58 -12q-29 -12 -29 -43v-124h236v124q0 27 -24.5 41t-62.5 14v86h362v-86q-50 -7 -65 -15q-29 -15 -29 -55
v-366q0 -35 21 -52t73 -17v-86z" />
    <glyph glyph-name="I" unicode="I" horiz-adv-x="394" 
d="M386 0h-362v86q48 6 51 7q35 10 35 55v373q0 42 -26 56q-13 7 -68 14v86h370v-86q-54 -7 -68 -14q-27 -14 -27 -56v-373q0 -62 95 -62v-86z" />
    <glyph glyph-name="J" unicode="J" horiz-adv-x="637" 
d="M621 591q-65 -8 -68 -10q-26 -14 -26 -75v-343q0 -79 -77 -129t-182 -50q-113 0 -198 54q-92 59 -92 150q0 48 22 80q28 40 83 40q42 0 64 -32q18 -26 18 -61q0 -22 -14 -43t-14 -27q0 -16 26.5 -32.5t59.5 -16.5q48 0 83 24q40 28 40 75v319q0 44 -24 60.5t-70 16.5v86
h369v-86z" />
    <glyph glyph-name="K" unicode="K" horiz-adv-x="794" 
d="M794 0h-386v86q26 2 52 5q24 5 24 22q0 13 -13 35l-109 179l-79 -70v-109q0 -32 23 -47t56 -15v-86h-346v86q36 0 58 14q28 18 28 55v366q0 37 -25.5 53.5t-60.5 16.5v86h346v-86q-29 -4 -57 -8q-22 -11 -22 -62v-148l165 163q24 24 24 38q0 10 -15 13.5t-38 3.5h-11v86
h347v-86q-84 -19 -131 -45q-57 -31 -137 -110l189 -281q24 -34 55.5 -51.5t62.5 -17.5v-86z" />
    <glyph glyph-name="L" unicode="L" horiz-adv-x="637" 
d="M668 241l-102 -241h-550v86q48 7 57 14q21 16 21 79v327q0 44 -19.5 61t-58.5 17v93h354v-93q-49 0 -65 -8q-29 -14 -29 -62v-382q0 -19 16.5 -29.5t44.5 -10.5q66 0 139 46q84 53 114 135z" />
    <glyph glyph-name="M" unicode="M" horiz-adv-x="936" 
d="M928 0h-370v86q44 0 62 8q33 15 33 61v335l-166 -490h-117l-165 498v-335q0 -52 26 -67q17 -10 68 -10v-86h-283v86q30 3 61 6q25 11 25 71v343q0 51 -18 68t-68 17v86h315l133 -420l133 420h331v-86q-29 -3 -57 -6q-37 -9 -37 -87v-343q0 -33 17 -49q21 -20 77 -20v-86z
" />
    <glyph glyph-name="N" unicode="N" horiz-adv-x="731" 
d="M731 591q-53 -10 -58 -12q-28 -15 -28 -65v-514h-126l-306 521v-373q0 -34 19.5 -48t66.5 -14v-86h-268v86q44 0 57 7q22 12 22 55v373q0 41 -28 56q-10 5 -58 14v86h299l227 -382v226q0 38 -24.5 54t-69.5 16v86h275v-86z" />
    <glyph glyph-name="O" unicode="O" horiz-adv-x="794" 
d="M765 333q0 -142 -89 -239q-101 -110 -274 -110q-182 0 -285 109q-92 97 -92 241q0 145 91 246q101 112 270 112q193 0 295 -118q84 -98 84 -241zM565 345q0 100 -39 165q-44 74 -124 74q-78 0 -128.5 -77.5t-50.5 -174.5q0 -99 44 -169q48 -77 127 -77t127 81
q44 74 44 178z" />
    <glyph glyph-name="P" unicode="P" 
d="M661 471q0 -105 -81 -155q-75 -46 -222 -46l-75 3v-110q0 -44 22 -62q18 -15 57 -15v-86h-346v86q44 0 65 23t21 70v342q0 41 -28 56q-10 5 -58 14v86h323q139 0 201 -23q121 -45 121 -183zM466 477q0 44 -37.5 74.5t-87.5 30.5q-23 0 -40.5 -8t-17.5 -22v-187l27 -1
q68 0 108 25q48 30 48 88z" />
    <glyph glyph-name="Q" unicode="Q" horiz-adv-x="794" 
d="M774 10q0 -130 -135 -188q-103 -44 -270 -44q-153 0 -243 54q-76 46 -76 105q0 30 23.5 51.5t53.5 21.5t53.5 -21t32.5 -67q4 -22 38.5 -33t98.5 -11q91 0 164 24q95 31 95 90q0 26 -19 54q-52 -31 -108 -47.5t-105 -16.5q-146 0 -246 105t-100 255q0 68 23 134
q33 96 103 152q89 72 229 72q193 0 296 -112q89 -97 89 -249q0 -115 -63 -199q66 -42 66 -130zM571 363q0 102 -48.5 161.5t-128.5 59.5q-76 0 -124 -78q-44 -72 -44 -172q0 -55 13.5 -103t43.5 -91q0 44 51 73.5t121 29.5q50 0 95 -18q21 77 21 138zM479 117q-26 19 -68 19
q-20 0 -33 -6.5t-16 -20.5q0 -10 10.5 -15t27.5 -5q22 0 44 7.5t35 20.5z" />
    <glyph glyph-name="R" unicode="R" horiz-adv-x="779" 
d="M786 0h-228l-219 295h-48v-140q0 -69 95 -69v-86h-370v86q59 9 76.5 26.5t17.5 50.5v381q0 32 -40 40q-34 5 -54 7v86h432q134 0 203 -55q60 -48 60 -122q0 -69 -50 -125t-119 -56l142 -179q17 -22 43 -35t59 -19v-86zM511 490q0 46 -44 71.5t-98 25.5q-35 0 -56.5 -10.5
t-21.5 -32.5v-155l47 -1q85 0 126 22q47 25 47 80z" />
    <glyph glyph-name="S" unicode="S" 
d="M646 231q0 -92 -77 -165q-82 -77 -200 -77q-47 0 -91 11.5t-97 38.5l-8 -39h-71l-78 249l78 24q38 -77 100 -126q71 -57 153 -57q48 0 81 15q48 22 48 67q0 46 -115 77q-175 47 -213 65q-116 56 -116 162t82 166q71 52 170 52q54 0 100.5 -14t63.5 -34l15 31h63l71 -203
l-78 -31q-34 70 -103 114q-64 40 -125 40q-38 0 -66 -21t-28 -48q0 -50 114 -75q176 -39 212 -55q115 -52 115 -167z" />
    <glyph glyph-name="T" unicode="T" horiz-adv-x="692" 
d="M708 474l-79 -31q-38 69 -82 106q-50 42 -107 42v-428q0 -48 17.5 -62.5t76.5 -14.5v-86h-369v86q48 0 65 9q30 16 30 68v428q-46 0 -97 -37q-60 -43 -92 -118l-79 30l79 211h550z" />
    <glyph glyph-name="U" unicode="U" horiz-adv-x="731" 
d="M723 591q-7 1 -13 1h-7q-28 0 -43 -15t-15 -49v-326q0 -111 -84 -173q-74 -55 -186 -55t-193 53q-88 58 -88 152v349q0 33 -25 47q-17 9 -61 16v86h346v-86q-48 -11 -63 -22.5t-15 -32.5v-334q0 -54 38 -84q34 -27 86 -27q54 0 92 28q42 31 42 83v334q0 55 -86 55v86h275
v-86z" />
    <glyph glyph-name="V" unicode="V" horiz-adv-x="716" 
d="M731 591q-33 0 -61 -22q-35 -28 -57 -87l-181 -482h-141l-197 514q-21 77 -118 77v86h378v-86l-54 -6q-31 -7 -31 -33q0 -13 7 -31l126 -334l109 311q13 37 13 55q0 21 -16.5 29.5t-59.5 8.5v86h283v-86z" />
    <glyph glyph-name="W" unicode="W" horiz-adv-x="936" 
d="M968 591q-62 0 -89 -31q-22 -26 -53 -124l-142 -436h-134l-94 303l-94 -303h-126l-165 514q-12 46 -30.5 61.5t-56.5 15.5v86h299v-86q-20 0 -30.5 -5.5t-10.5 -23.5q0 -15 10 -41l87 -296l69 234q-13 41 -25 82q-19 50 -68 50v86h314v-86q-37 0 -52 -8t-15 -36v-15
q0 -1 4 -18l87 -304l94 318q3 12 3 21q0 26 -21.5 34t-68.5 8v86h308v-86z" />
    <glyph glyph-name="X" unicode="X" horiz-adv-x="779" 
d="M779 0h-393v86q8 0 16 -0.5t16 -0.5q26 0 26 13q0 12 -20 42l-85 125l-95 -141q-3 -8 -3 -13q0 -16 19 -20.5t55 -4.5v-86h-307v86q33 0 69 24q30 20 57 53l149 179l-141 179q-27 33 -53 50q-31 20 -65 20v86h378v-86q-59 0 -59 -24q0 -9 7.5 -21t11.5 -18l62 -85l63 85
q19 22 19 37q0 26 -66 26v86h307v-86q-37 0 -79 -25q-35 -21 -55 -45l-134 -163l166 -210q26 -31 69 -48q36 -14 65 -14v-86z" />
    <glyph glyph-name="Y" unicode="Y" horiz-adv-x="692" 
d="M723 591q-57 -9 -83 -23t-43 -40l-157 -233v-147q0 -36 28 -51q21 -11 59 -11v-86h-362v86q37 0 56 7q39 14 39 55v132l-158 241q-21 37 -53 53q-21 10 -65 17v86h386v-86q-39 0 -55 -7.5t-16 -21.5q0 -12 8 -26l79 -147l78 125q3 4 15 25.5t12 30.5q0 21 -75 21v86h307
v-86z" />
    <glyph glyph-name="Z" unicode="Z" horiz-adv-x="637" 
d="M645 233l-95 -233h-526l-16 62l378 514q-32 6 -63 6q-77 0 -137 -36q-67 -40 -99 -118l-79 31l102 218h480l23 -71l-377 -513q13 -3 31.5 -5t41.5 -2q83 0 144 33q81 44 105 138z" />
    <glyph glyph-name="bracketleft" unicode="[" horiz-adv-x="299" 
d="M291 -140h-220v863h220v-93q-20 1 -29 1q-25 0 -37 -7.5t-12 -32.5v-583q0 -39 14.5 -50.5t63.5 -11.5v-86z" />
    <glyph glyph-name="backslash" unicode="\" horiz-adv-x="597" 
d="M558 0h-134l-377 715h134z" />
    <glyph glyph-name="bracketright" unicode="]" horiz-adv-x="299" 
d="M228 -140h-220v86q30 3 61 5q18 5 18 25v608q0 38 -27 40.5t-52 5.5v85h220v-855z" />
    <glyph glyph-name="asciicircum" unicode="^" horiz-adv-x="597" 
d="M558 273h-126l-125 248l-126 -248h-134l197 404h118z" />
    <glyph glyph-name="underscore" unicode="_" horiz-adv-x="495" 
d="M495 -155h-503v62h503v-62z" />
    <glyph glyph-name="grave" unicode="`" horiz-adv-x="354" 
d="M331 599l-16 -55l-181 40q-33 6 -48.5 24.5t-15.5 43.5q0 29 21 53t53 24q16 0 33 -6.5t36 -22.5z" />
    <glyph glyph-name="a" unicode="a" horiz-adv-x="574" 
d="M582 54q-21 -26 -56.5 -43t-74.5 -17q-33 0 -61 12.5t-51 39.5q-55 -47 -148 -47q-69 0 -119 34q-56 38 -56 99q0 83 75 127q61 36 224 68l3 28q0 35 -17.5 51t-43.5 16q-58 0 -58 -50q0 -29 -23.5 -50.5t-54.5 -21.5q-29 0 -54 25t-25 56q0 61 58.5 99t165.5 38
q92 0 148 -34q65 -40 65 -119v-233q0 -9 6 -17t15 -8q13 0 27 17zM315 140v93q-48 -7 -78 -22q-42 -21 -42 -55q0 -19 15 -32t34 -13q37 0 71 29z" />
    <glyph glyph-name="b" unicode="b" horiz-adv-x="597" 
d="M566 265q0 -147 -74 -217q-60 -57 -155 -57q-45 0 -80.5 10.5t-59.5 29.5l-24 -31h-118v514q0 53 -12 65t-67 12v86q39 0 97.5 12t91.5 34h55v-241q32 17 60.5 24t59.5 7q96 0 161 -72t65 -176zM394 265q0 66 -27.5 103.5t-67.5 37.5q-37 0 -79 -33v-233q38 -39 76 -39
q42 0 70 43.5t28 120.5z" />
    <glyph glyph-name="c" unicode="c" horiz-adv-x="574" 
d="M558 148q-30 -76 -105 -117q-69 -38 -151 -38q-120 0 -194.5 74.5t-74.5 196.5q0 95 69 171q77 85 194 85q81 0 153 -42q81 -47 81 -115q0 -34 -18 -56q-22 -26 -63 -26q-37 0 -60 23q-27 27 -27 77q0 15 -18 28t-41 13q-34 0 -57 -35q-28 -43 -28 -128q0 -72 28 -115
t87 -43q41 0 79.5 25.5t58.5 68.5z" />
    <glyph glyph-name="d" unicode="d" horiz-adv-x="637" 
d="M613 0h-227v39q-45 -45 -123 -45q-94 0 -162 60q-78 68 -78 183q0 131 76 212q68 72 158 72q34 0 61.5 -9t51.5 -30v62q0 31 -24 41q-15 6 -55 6v93q48 0 96 8t100 31h55v-544q0 -52 14 -69t57 -17v-93zM370 148v217q-28 44 -71 44q-42 0 -70 -41q-32 -46 -32 -127
q0 -71 27 -106q23 -30 62 -30q53 0 84 43z" />
    <glyph glyph-name="e" unicode="e" horiz-adv-x="574" 
d="M550 155q-34 -76 -105 -119q-67 -40 -147 -40q-108 0 -180 64q-82 73 -82 205q0 113 69.5 184.5t185.5 71.5q114 0 183 -66q64 -61 64 -150q0 -21 -4 -40h-321q13 -86 45 -128q28 -36 68 -36q41 0 81.5 32.5t56.5 68.5zM362 350q0 62 -63 62q-32 0 -52.5 -14t-26.5 -48
h142z" />
    <glyph glyph-name="f" unicode="f" horiz-adv-x="378" 
d="M456 646q0 -32 -23 -50.5t-54 -18.5q-34 0 -52.5 26.5t-30.5 26.5t-22 -21q-6 -13 -6 -25v-86h86v-94h-86v-249q0 -61 50 -66q22 -2 44 -3v-86h-346v86q51 8 57 11q21 12 21 58v249h-86v94h86l-1 21q0 89 46 148q56 72 168 72q61 0 98 -17q51 -23 51 -76z" />
    <glyph glyph-name="g" unicode="g" horiz-adv-x="574" 
d="M584 520q0 -26 -20 -43t-45 -17q-16 0 -41 13q-11 6 -16 6q-8 0 -14 -5.5t-8 -7.5q40 -39 58.5 -77.5t18.5 -77.5q0 -76 -64 -128t-153 -52q-17 0 -53 7t-50 7q-10 0 -19 -3t-9 -18q0 -30 129 -37.5t173 -20.5q107 -32 107 -123q0 -87 -81 -139.5t-229 -52.5
q-117 0 -189.5 41.5t-72.5 97.5q0 24 16.5 49t48.5 45q-26 18 -38 41.5t-12 50.5q0 39 25.5 72t71.5 47q-33 25 -50.5 58.5t-17.5 67.5q0 76 66.5 135.5t167.5 59.5q39 0 78 -10q27 42 65.5 62.5t76.5 20.5q47 0 67 -26q13 -17 13 -43zM357 314q0 40 -19 69t-55 29
q-33 0 -52 -30t-19 -71q0 -39 18 -66.5t53 -27.5q36 0 55 28.5t19 68.5zM408 -119q0 28 -84 40.5t-174 24.5q-25 -25 -25 -45q0 -30 46 -46t110 -16q52 0 89.5 11.5t37.5 30.5z" />
    <glyph glyph-name="h" unicode="h" horiz-adv-x="676" 
d="M653 0h-291v86q35 8 39 11q15 12 15 58v195q0 30 -10.5 42.5t-32.5 12.5t-53 -13q-20 -8 -52 -27v-202q0 -46 11.5 -61.5t43.5 -15.5v-86h-299v86q46 7 52 11q18 12 18 58v389q0 29 -13 38t-39 9h-26v86q47 7 95 14q66 12 102 32h55v-257q36 27 75.5 40.5t73.5 13.5
q70 0 117.5 -39.5t47.5 -91.5v-226q0 -51 20 -65q6 -4 51 -12v-86z" />
    <glyph glyph-name="i" unicode="i" horiz-adv-x="354" 
d="M272 630q0 -38 -24 -64q-28 -30 -75 -30q-48 0 -73 25.5t-25 62.5q0 36 26.5 67.5t63.5 31.5q55 0 83 -29q24 -25 24 -64zM339 0h-315v86q45 10 50 13q28 15 28 56v187q0 55 -86 55v69l189 32h63v-343q0 -32 20 -49q17 -14 51 -20v-86z" />
    <glyph glyph-name="j" unicode="j" horiz-adv-x="339" 
d="M279 626q0 -38 -23 -62q-26 -28 -75 -28q-47 0 -72.5 26.5t-25.5 63.5q0 39 24 66q28 31 74 31t72 -29t26 -68zM283 -16q0 -108 -71 -159q-60 -43 -166 -43q-67 0 -101 19q-42 23 -42 77q0 22 20.5 41.5t52.5 19.5q44 0 65 -27t40 -27q13 0 22 14.5t9 47.5q0 7 -1 15.5
t-1 13.5v335q0 55 -24 68q-35 6 -55 10v77l174 32h78v-514z" />
    <glyph glyph-name="k" unicode="k" 
d="M653 0h-299v86q31 0 31 14q0 11 -23 40l-55 77l-31 -22q0 -66 9.5 -85t45.5 -24v-86h-307v86q39 0 58.5 15t19.5 39v388q0 41 -24 52q-4 2 -54 11v86q30 0 84 14t97 32h63v-420l55 62q22 22 22 31q0 10 -38 16v86h298v-86q-48 -5 -99 -36q-43 -26 -82 -65l126 -171
q19 -25 45.5 -39.5t57.5 -14.5v-86z" />
    <glyph glyph-name="l" unicode="l" horiz-adv-x="339" 
d="M323 0h-307v93q34 0 47 7q24 13 24 55v381q0 51 -42 58q-23 2 -45 5v78q42 0 101 14t96 32h55v-568q0 -42 18 -54q12 -8 53 -8v-93z" />
    <glyph glyph-name="m" unicode="m" horiz-adv-x="999" 
d="M983 0h-307v86q39 0 51 18.5t12 58.5v179q0 27 -16.5 41.5t-43.5 14.5q-45 0 -89 -33v-202q0 -47 18 -65q12 -12 37 -12v-86h-283v86q30 0 39 9q15 15 15 68v187q0 25 -13 36t-34 11q-30 0 -65.5 -18t-35.5 -29v-187q0 -45 15 -61t48 -16v-86h-300v86q29 0 43 12
q20 18 20 65v179q0 27 -18.5 37t-51.5 10v85l181 32h47v-40q41 28 82.5 41.5t79.5 13.5q94 0 136 -62q83 61 186 61q67 0 118 -38.5t51 -100.5v-218q0 -45 23 -63q18 -14 55 -14v-86z" />
    <glyph glyph-name="n" unicode="n" horiz-adv-x="676" 
d="M653 0h-299v86q38 0 50 17.5t12 51.5v180q0 31 -13.5 45.5t-38.5 14.5q-22 0 -63 -19.5t-41 -25.5v-195q0 -32 14.5 -50.5t48.5 -18.5v-86h-307v86q25 5 50 11q28 14 28 58v156q0 44 -19.5 61t-58.5 17v85l181 32h55v-40q40 23 87 37t89 14q61 0 107.5 -35.5t46.5 -92.5
v-234q0 -34 19.5 -51.5t51.5 -17.5v-86z" />
    <glyph glyph-name="o" unicode="o" horiz-adv-x="613" 
d="M597 257q0 -107 -71 -182q-79 -83 -211 -83t-212 84q-73 77 -73 186q0 108 72 179q81 80 229 80q117 0 194 -84q72 -78 72 -180zM413 252q0 64 -24 112t-66 48q-51 0 -79.5 -47.5t-28.5 -112.5q0 -63 25.5 -107t74.5 -44t75 47q23 41 23 104z" />
    <glyph glyph-name="p" unicode="p" horiz-adv-x="637" 
d="M621 265q0 -135 -76 -210q-66 -66 -162 -66q-59 0 -107 27v-62q0 -51 20 -65q8 -5 50 -13v-86h-322v86q27 5 54 9q24 13 24 69v373q0 28 -11.5 40.5t-66.5 21.5v85l189 32h55v-47q55 52 138 52q88 0 147 -58q68 -67 68 -188zM448 273q0 52 -28.5 92.5t-62.5 40.5
q-19 0 -39.5 -8.5t-41.5 -24.5v-241q36 -32 72 -32q44 0 72 46.5t28 126.5z" />
    <glyph glyph-name="q" unicode="q" horiz-adv-x="613" 
d="M637 -210h-338v78q34 0 55 9q32 14 32 45v94q-50 -30 -109 -30q-97 0 -169 67q-79 73 -79 188q0 127 74 200q68 67 167 67q41 0 80 -12t74 -37l16 39h110v-576q0 -26 23 -38q18 -9 64 -16v-78zM386 124v249q-44 24 -79 24q-94 0 -94 -156q0 -73 25.5 -110t66.5 -37
q18 0 39.5 8t41.5 22z" />
    <glyph glyph-name="r" unicode="r" horiz-adv-x="456" 
d="M469 414q0 -33 -26 -54t-61 -21q-36 0 -61.5 21.5t-31.5 21.5q-21 0 -21 -32v-210q0 -35 27 -47q16 -7 51 -7v-86h-330v86q39 0 62.5 13t23.5 41v187q0 37 -21 49.5t-57 12.5v85l165 24h55v-47q26 18 55 33q46 23 80 23q40 0 65 -28.5t25 -64.5z" />
    <glyph glyph-name="s" unicode="s" horiz-adv-x="519" 
d="M491 171q0 -85 -73 -134q-64 -43 -152 -43q-79 0 -132 37l-8 -31h-71l-39 163l86 16q33 -47 74 -70q36 -20 74 -20q39 0 64 14t25 37q0 27 -82 41q-117 20 -154 37q-83 38 -83 122q0 68 62 123t149 55q34 0 65 -8.5t66 -27.5l16 24h62l16 -156l-86 -8q-31 44 -64 63
t-64 19q-28 0 -46.5 -13t-18.5 -29q0 -27 81 -43q114 -22 151 -40q82 -40 82 -128z" />
    <glyph glyph-name="t" unicode="t" horiz-adv-x="456" 
d="M448 86q-24 -42 -85 -71t-125 -29q-65 0 -105 33q-46 38 -46 113v272h-71v86q59 0 100 49t41 114h103v-155h142v-94h-142v-249q0 -48 33 -48q21 0 48.5 18t44.5 38z" />
    <glyph glyph-name="u" unicode="u" 
d="M653 0h-221v39q-43 -22 -88.5 -35t-86.5 -13q-65 0 -114 40t-49 101v203q0 54 -78 54v85l189 24h55v-319q0 -77 51 -77q35 0 97 38v195q0 37 -23 48q-12 6 -46 6v85l188 24h55v-350q0 -55 71 -55v-93z" />
    <glyph glyph-name="v" unicode="v" horiz-adv-x="597" 
d="M590 412q-31 -5 -58 -28q-20 -17 -29 -34l-172 -350h-95l-165 335q-25 51 -42 63q-10 7 -45 14v86h307v-86q-27 0 -39.5 -4.5t-12.5 -21.5t13 -44l63 -140l63 156q5 13 5 22q0 32 -52 32v86h259v-86z" />
    <glyph glyph-name="w" unicode="w" horiz-adv-x="794" 
d="M810 412q-32 -7 -49 -22q-21 -19 -38 -63l-133 -327h-119l-77 202l-71 -202h-118l-134 319q-19 44 -36 63t-51 30v86h268v-86q-50 0 -50 -28q0 -11 7 -31.5t19 -49.5l48 -116l70 178q5 12 -17.5 29.5t-45.5 17.5v86h267v-86q-59 0 -59 -34q0 -18 12 -51l55 -140l63 155
q6 21 6 35q0 35 -45 35v86h228v-86z" />
    <glyph glyph-name="x" unicode="x" horiz-adv-x="597" 
d="M597 0h-321v86q43 0 43 18q0 10 -26 46q-19 26 -25 37q-33 -31 -47.5 -50.5t-14.5 -30.5q0 -13 15.5 -16.5t38.5 -3.5v-86h-252v86q34 4 90.5 61.5t114.5 117.5q-76 92 -107 116.5t-75 30.5v86h292v-86q-44 0 -44 -20q0 -19 44 -57q50 48 50 64q0 13 -34 13v86h243v-86
q-39 -7 -85 -36q-8 -5 -135 -103q59 -75 83 -101q63 -67 152 -86v-86z" />
    <glyph glyph-name="y" unicode="y" horiz-adv-x="613" 
d="M613 420q-54 -18 -61 -23q-28 -18 -49 -70l-149 -327q-34 -75 -53 -105q-35 -56 -76 -85q-50 -35 -115 -35q-29 0 -60 27q-35 30 -35 65q1 6 1 9q5 33 33 53.5t61 20.5q31 0 46 -13q13 -15 26 -31q10 0 27 32q8 14 35 70l-157 334q-17 40 -35 56t-52 22v78h315v-78
q-63 -8 -63 -33q0 -16 16 -45l63 -140l63 163q6 14 6 23q0 13 -11.5 20t-42.5 12v78h267v-78z" />
    <glyph glyph-name="z" unicode="z" horiz-adv-x="558" 
d="M542 187l-63 -187h-432l-31 86l275 318q-16 2 -24 2q-46 0 -83.5 -26.5t-65.5 -76.5l-87 39l63 156h401l32 -70l-283 -327q84 0 124 17q57 25 96 99z" />
    <glyph glyph-name="braceleft" unicode="{" horiz-adv-x="315" 
d="M283 -132q-107 0 -145 39q-30 31 -30 105l7 141q0 57 -14 89q-18 42 -62 53q40 18 57 54t17 86l-5 125q0 99 45 134q37 29 130 29q-50 -28 -66 -64q-12 -28 -12 -85q2 -34 3.5 -79t1.5 -51v-7q0 -1 -1 -4q0 -57 -13 -88q-18 -43 -62 -50q43 -9 60 -39q14 -25 14 -68
l-5 -190q0 -50 14 -77q18 -35 66 -53z" />
    <glyph glyph-name="bar" unicode="|" horiz-adv-x="597" 
d="M362 0h-118v723h118v-723z" />
    <glyph glyph-name="braceright" unicode="}" horiz-adv-x="315" 
d="M283 297q-40 -18 -57 -54t-17 -86l5 -125q0 -99 -45 -134q-37 -29 -130 -29q50 28 66 64q12 28 12 85q-2 34 -2 52q-3 72 -3 78v9q0 1 1 2q0 57 13 88q18 43 62 50q-43 9 -58.5 36.5t-15.5 70.5l5 190q0 50 -14 77q-18 35 -66 53q107 0 145 -39q30 -31 30 -105l-7 -141
q0 -57 14 -89q18 -42 62 -53z" />
    <glyph glyph-name="asciitilde" unicode="~" horiz-adv-x="597" 
d="M558 287q-41 -60 -74 -86t-71 -26q-28 0 -105 32t-104 32q-31 0 -52 -20.5t-42 -63.5l-63 78q33 66 70.5 98.5t86.5 32.5q40 0 80 -22q88 -48 115 -48q23 0 45.5 18.5t42.5 60.5z" />
    <glyph glyph-name="Adieresis" unicode="&#xc4;" horiz-adv-x="716" 
 />
    <glyph glyph-name="Aring" unicode="&#xc5;" horiz-adv-x="716" 
 />
    <glyph glyph-name="Ccedilla" unicode="&#xc7;" horiz-adv-x="731" 
 />
    <glyph glyph-name="Eacute" unicode="&#xc9;" horiz-adv-x="716" 
 />
    <glyph glyph-name="Ntilde" unicode="&#xd1;" horiz-adv-x="785" 
 />
    <glyph glyph-name="Odieresis" unicode="&#xd6;" horiz-adv-x="794" 
 />
    <glyph glyph-name="Udieresis" unicode="&#xdc;" horiz-adv-x="731" 
 />
    <glyph glyph-name="aacute" unicode="&#xe1;" horiz-adv-x="574" 
 />
    <glyph glyph-name="agrave" unicode="&#xe0;" horiz-adv-x="574" 
 />
    <glyph glyph-name="acircumflex" unicode="&#xe2;" horiz-adv-x="574" 
 />
    <glyph glyph-name="adieresis" unicode="&#xe4;" horiz-adv-x="574" 
 />
    <glyph glyph-name="atilde" unicode="&#xe3;" horiz-adv-x="574" 
 />
    <glyph glyph-name="aring" unicode="&#xe5;" horiz-adv-x="574" 
 />
    <glyph glyph-name="ccedilla" unicode="&#xe7;" horiz-adv-x="574" 
 />
    <glyph glyph-name="eacute" unicode="&#xe9;" horiz-adv-x="574" 
 />
    <glyph glyph-name="egrave" unicode="&#xe8;" horiz-adv-x="574" 
 />
    <glyph glyph-name="ecircumflex" unicode="&#xea;" horiz-adv-x="574" 
 />
    <glyph glyph-name="edieresis" unicode="&#xeb;" horiz-adv-x="574" 
 />
    <glyph glyph-name="iacute" unicode="&#xed;" horiz-adv-x="354" 
 />
    <glyph glyph-name="igrave" unicode="&#xec;" horiz-adv-x="354" 
 />
    <glyph glyph-name="icircumflex" unicode="&#xee;" horiz-adv-x="354" 
 />
    <glyph glyph-name="idieresis" unicode="&#xef;" horiz-adv-x="354" 
 />
    <glyph glyph-name="ntilde" unicode="&#xf1;" horiz-adv-x="676" 
 />
    <glyph glyph-name="oacute" unicode="&#xf3;" horiz-adv-x="613" 
 />
    <glyph glyph-name="ograve" unicode="&#xf2;" horiz-adv-x="613" 
 />
    <glyph glyph-name="ocircumflex" unicode="&#xf4;" horiz-adv-x="613" 
 />
    <glyph glyph-name="odieresis" unicode="&#xf6;" horiz-adv-x="613" 
 />
    <glyph glyph-name="otilde" unicode="&#xf5;" horiz-adv-x="613" 
 />
    <glyph glyph-name="uacute" unicode="&#xfa;" 
 />
    <glyph glyph-name="ugrave" unicode="&#xf9;" 
 />
    <glyph glyph-name="ucircumflex" unicode="&#xfb;" 
 />
    <glyph glyph-name="udieresis" unicode="&#xfc;" 
 />
    <glyph glyph-name="dagger" unicode="&#x2020;" horiz-adv-x="432" 
d="M402 412q0 -32 -14.5 -45.5t-42.5 -13.5q-23 0 -48 7t-61 21q11 -26 25 -49t22 -37q-22 -59 -30.5 -124.5t-8.5 -131.5v-202h-55v202q0 74 -8 125q-11 70 -39 131q21 34 25 41q12 22 22 45q-23 -9 -54 -17.5t-53 -8.5q-27 0 -42.5 11t-15.5 38q0 56 54 56q19 0 44.5 -6
t66.5 -18q-13 52 -19 79q-20 85 -20 99q0 33 13.5 54.5t49.5 21.5q32 0 49 -24q14 -20 14 -52q0 -17 -20 -99q-6 -27 -20 -79q38 11 58 16q37 10 59 10q23 0 36 -11t13 -39z" />
    <glyph glyph-name="degree" unicode="&#xb0;" horiz-adv-x="339" 
d="M280 646q0 -41 -28.5 -71.5t-78.5 -30.5q-49 0 -77.5 30.5t-28.5 71.5t27.5 71t78.5 30t79 -30t28 -71zM203 646q0 13 -7.5 22t-22.5 9q-13 0 -21 -9t-8 -22t7.5 -22.5t21.5 -9.5q30 0 30 32z" />
    <glyph glyph-name="cent" unicode="&#xa2;" 
d="M542 241q-8 -24 -59 -59q-61 -42 -113 -42v-140h-63v140q-85 13 -133 70q-44 52 -44 120q0 70 45 125q49 59 132 73v125h63v-125q71 0 112 -38q37 -35 37 -86q0 -22 -20 -35.5t-44 -13.5t-41 12.5t-20.5 37t-15 37.5t-28.5 13q-29 0 -54 -35t-25 -83q0 -45 22 -76
q28 -39 80 -39q29 0 60.5 14t61.5 44z" />
    <glyph glyph-name="sterling" unicode="&#xa3;" 
d="M660 117q0 -53 -34 -91q-38 -43 -101 -43q-52 0 -132 39q-26 13 -70 40q-29 -34 -80 -55t-102 -21q-57 0 -96 24q-45 28 -45 76q0 51 35.5 83.5t94.5 32.5q21 0 40.5 -3.5t42.5 -11.5q0 34 -6.5 56t-41.5 92h-126l16 69h87q-13 38 -13 75q0 87 66 148q71 65 183 65
q97 0 161 -39q76 -46 76 -133q0 -42 -24.5 -64t-59.5 -22q-28 0 -47.5 18.5t-19.5 53.5q0 8 5 30q2 9 2 14q0 20 -18 35q-23 19 -68 19q-54 0 -82 -31t-28 -85q0 -23 6 -43t18 -41h196l-16 -69h-156l32 -62q16 -38 16 -92l-1 -33q34 -20 74 -33.5t67 -13.5q34 0 39 23
q6 34 -45 34l-34 -3l-23 62q39 15 78 15q57 0 95.5 -30.5t38.5 -84.5zM205 101q-11 8 -30 13.5t-37 5.5q-19 0 -31.5 -6.5t-12.5 -20.5q0 -20 37 -20q22 0 42.5 7t31.5 21z" />
    <glyph glyph-name="section" unicode="&#xa7;" horiz-adv-x="597" 
d="M566 52q0 -81 -65 -139q-77 -68 -210 -68q-93 0 -164 34q-90 43 -90 121q0 29 26 47.5t57 18.5q62 0 83 -64t87 -64q41 0 80 18q49 23 49 60q0 50 -94 74q-169 43 -175 45q-95 41 -95 131q0 71 71 131q-66 47 -66 114q0 69 65 123q70 58 174 58q105 0 174 -40t69 -100
q0 -32 -21 -48t-52 -16q-60 0 -79 57t-77 57q-41 0 -68.5 -16t-27.5 -45q0 -37 90 -60q133 -34 167 -52q90 -47 90 -143q0 -37 -14.5 -68t-38.5 -47q26 -21 40.5 -51.5t14.5 -67.5zM428 253q0 45 -82 66q-104 27 -118 39q-25 -35 -25 -56q0 -32 71 -50q116 -30 142 -42
q12 23 12 43z" />
    <glyph glyph-name="bullet" unicode="&#x2022;" horiz-adv-x="456" 
d="M407 336q0 -70 -45 -119q-50 -54 -134 -54q-82 0 -129 52q-42 46 -42 115q0 71 43 121q48 55 128 55q86 0 135 -52q44 -47 44 -118z" />
    <glyph glyph-name="paragraph" unicode="&#xb6;" horiz-adv-x="794" 
d="M755 -101h-558v85q55 6 70.5 20.5t15.5 65.5v203q-135 0 -211 65q-68 58 -68 143q0 83 63 140q69 63 185 63h503v-85q-60 -16 -68 -28q-11 -17 -11 -57v-444q0 -60 25 -75q27 -5 54 -11v-85zM503 -16v615h-55v-615h55z" />
    <glyph glyph-name="germandbls" unicode="&#xdf;" 
d="M652 213q0 -89 -71 -155q-76 -71 -193 -71q-48 0 -97 13l16 78q68 0 116.5 35.5t48.5 85.5q0 67 -82.5 115t-82.5 92q0 25 61.5 76.5t61.5 72.5t-19 37t-43 16q-40 0 -72 -34q-36 -39 -36 -100v-342q0 -121 -78 -177q-61 -44 -156 -44q-26 0 -48 3t-41 8l24 78
q7 -2 17.5 -3t18.5 -1q45 0 71 28t26 85v303h-70l15 70h55q23 112 90 159q61 43 178 43q89 0 150.5 -35t61.5 -89q0 -32 -29 -69q-32 -36 -64 -71q66 -36 116 -80q55 -49 55 -127z" />
    <glyph glyph-name="registered" unicode="&#xae;" horiz-adv-x="786" 
d="M792 340q0 -146 -90 -250q-99 -114 -262 -114q-165 0 -265 115q-91 105 -91 253q0 140 84 238q94 110 256 110q178 0 279 -110q89 -97 89 -242zM696 334q0 108 -66 185q-75 87 -198 87q-117 0 -189 -80q-66 -74 -66 -176q0 -113 68 -196q75 -92 195 -92t191 85
q65 77 65 187zM637 155h-118q-9 14 -37 78q-37 86 -80 86v-94q0 -27 6.5 -32.5t31.5 -5.5v-32h-164v32q26 0 32.5 5t6.5 33v226q0 34 -6 41t-33 14v30h180q66 0 101 -31q30 -27 30 -70q0 -36 -21.5 -65.5t-54.5 -34.5q30 -20 55 -66q45 -82 71 -82v-32zM503 428q0 42 -30 58
q-23 12 -71 12v-140q49 0 70 10q31 15 31 60z" />
    <glyph glyph-name="copyright" unicode="&#xa9;" horiz-adv-x="786" 
d="M784 340q0 -146 -90 -250q-99 -114 -262 -114q-165 0 -265 115q-91 105 -91 253q0 140 83 238q94 110 257 110q177 0 278 -110q90 -98 90 -242zM688 334q0 108 -66 185q-75 87 -198 87q-117 0 -189 -80q-66 -73 -66 -176q0 -113 68 -196q75 -92 195 -92t191 85
q65 77 65 187zM590 225q-15 -46 -59.5 -72t-99.5 -26q-77 0 -128 47q-59 54 -59 153q0 93 47 151t125 58q54 0 101 -11t57 -11v-125h-47q0 46 -25.5 70.5t-59.5 24.5q-39 0 -64.5 -39.5t-25.5 -99.5q0 -66 22 -106q26 -48 80 -48q29 0 53 14t35 36z" />
    <glyph glyph-name="trademark" unicode="&#x2122;" horiz-adv-x="889" 
d="M983 265h-197v38q32 0 40 4q16 8 16 35v249l-134 -326h-16l-150 326v-241q0 -47 55 -47v-38h-141v38q26 0 36.5 9t10.5 38v241q0 34 -6.5 40.5t-32.5 6.5v31h149l110 -249l103 249h157v-31q-38 0 -46.5 -6t-8.5 -41v-249q0 -27 10.5 -33t44.5 -6v-38zM424 560h-38
q0 49 -19.5 59.5t-90.5 10.5v-288q0 -27 13.5 -33t49.5 -6v-38h-213v38q31 0 43 8t12 31v288q-68 0 -82 -10.5t-20 -59.5h-40v109h385v-109z" />
    <glyph glyph-name="acute" unicode="&#xb4;" horiz-adv-x="354" 
d="M333 647q0 -28 -21.5 -49.5t-67.5 -29.5l-157 -32l-24 48l110 100q21 19 41.5 27.5t40.5 8.5q34 0 56 -22t22 -51z" />
    <glyph glyph-name="dieresis" unicode="&#xa8;" horiz-adv-x="464" 
d="M410 622q0 -28 -18 -49t-52 -21q-32 0 -51 21t-19 49q0 29 18 49.5t52 20.5t52 -20t18 -50zM195 622q0 -28 -19 -49t-52 -21q-34 0 -54 22t-20 50t19 48t55 20q34 0 52.5 -20.5t18.5 -49.5z" />
    <glyph glyph-name="AE" unicode="&#xc6;" horiz-adv-x="1133" 
 />
    <glyph glyph-name="Oslash" unicode="&#xd8;" horiz-adv-x="794" 
 />
    <glyph glyph-name="plusminus" unicode="&#xb1;" horiz-adv-x="597" 
d="M555 435h-196v-185h191v-107h-505l-1 107h197v185h-197v116h197v195h118v-195h196v-116z" />
    <glyph glyph-name="yen" unicode="&#xa5;" 
d="M692 591q-81 -10 -110 -47l-79 -101h134v-62h-166l-55 -86h221v-54h-229v-93q0 -32 25.5 -47t69.5 -15v-86h-353v86q53 6 57 7q37 10 37 55v93h-220v54h204l-47 86h-157v62h118l-63 85q-20 26 -45 42t-65 21v86h370v-86q-30 0 -51.5 -3.5t-21.5 -23.5q0 -4 2 -12l86 -148
l94 140q12 16 12 26q0 14 -25 16.5t-49 4.5v86h306v-86z" />
    <glyph glyph-name="mu" unicode="&#xb5;" 
d="M653 0h-221v39q-43 -22 -88.5 -35t-86.5 -13q-60 0 -87 -90t-86 -90q-19 0 -26.5 12t-7.5 38q0 31 22 128t22 143v203q0 54 -78 54v85l189 24h55v-319q0 -77 51 -77q35 0 97 38v195q0 37 -23 48q-12 6 -46 6v85l188 24h55v-350q0 -55 71 -55v-93z" />
    <glyph glyph-name="ordfeminine" unicode="&#xaa;" horiz-adv-x="394" 
d="M394 404q-14 -14 -39 -23.5t-51 -9.5q-22 0 -41 7.5t-35 25.5q-9 -14 -35 -22.5t-60 -8.5q-48 0 -78 17q-36 21 -36 61q0 59 54 86q45 23 140 31v31q0 11 -11.5 17.5t-27.5 6.5q-22 0 -32.5 -31.5t-57.5 -38.5q-21 -3 -37 10t-16 36q0 44 45.5 64.5t112.5 20.5
q64 0 99 -21.5t35 -71.5v-109q0 -41 17 -41q9 0 22 10zM370 287h-339v48h339v-48zM213 459v55q-33 -6 -54 -17.5t-21 -26.5q0 -10 10.5 -18t27.5 -8q22 0 37 15z" />
    <glyph glyph-name="ordmasculine" unicode="&#xba;" horiz-adv-x="394" 
d="M389 535q0 -64 -46 -106q-52 -48 -146 -48q-91 0 -144 49q-48 44 -48 109t48 110q54 51 144 51q89 0 143 -52q49 -47 49 -113zM370 303h-354v39h354v-39zM259 543q0 36 -16 61.5t-46 25.5q-28 0 -45 -27.5t-17 -65.5q0 -35 16 -60.5t46 -25.5q28 0 45 27.5t17 64.5z" />
    <glyph glyph-name="ae" unicode="&#xe6;" horiz-adv-x="873" 
 />
    <glyph glyph-name="oslash" unicode="&#xf8;" horiz-adv-x="613" 
 />
    <glyph glyph-name="questiondown" unicode="&#xbf;" 
d="M420 418q0 -39 -23 -63q-26 -28 -74 -28q-44 0 -69 28t-25 66t24.5 65.5t69.5 27.5t71 -29t26 -67zM613 8q-9 -92 -84 -144t-200 -52q-110 0 -185 45q-89 53 -89 151q0 80 57 131q4 4 107 68q57 36 57 80h102l3 -42q0 -86 -67.5 -133t-67.5 -101q0 -43 24 -71
q29 -33 84 -33q32 0 62 13q36 16 36 40q0 9 -9 30t-9 31q0 31 26.5 50.5t61.5 19.5q34 0 64 -24.5t27 -58.5z" />
    <glyph glyph-name="exclamdown" unicode="&#xa1;" horiz-adv-x="354" 
d="M279 418q0 -38 -25.5 -64.5t-72.5 -26.5q-44 0 -69 28t-25 66t24.5 65.5t69.5 27.5q46 0 72 -29t26 -67zM291 -70q1 -6 1 -18q0 -46 -31 -74t-74 -28t-76 29t-33 75q0 10 1 16l55 357h94z" />
    <glyph glyph-name="logicalnot" unicode="&#xac;" horiz-adv-x="954" 
d="M910 183l-58 -211q-4 -14 -9 -20q-12 -15 -37 -15q-7 0 -11 1v18q18 -4 30 8.5t12 33.5l-48 185h21l40 -149l39 149h21zM771 57q0 -32 -15 -48t-37 -16q-28 0 -41.5 22.5t-13.5 70.5q0 55 13.5 77.5t41.5 22.5q26 0 39.5 -21t13.5 -56q0 -13 -1 -20h-86q1 -26 3 -39
q8 -40 31 -40q18 0 26 15.5t6 31.5h20zM649 0h-26l-65 123l-27 -34v-89h-23v249h23v-124l87 124h29l-74 -105zM482 0q-6 -4 -16 -4q-12 0 -19 8q-10 11 -10 35v126h-18v18h18v55h21v-55h24v-18h-24v-131q0 -20 12 -20q2 0 12 4v-18zM413 233q-14 0 -18 -4t-4 -20v-26h21v-18
h-21v-165h-21v165h-22v18h22v29q0 20 7 28t36 11v-18zM329 115q0 -53 -7 -76q-14 -46 -55 -46q-32 0 -43 29t-11 88q0 25 7 42q13 33 47 36q62 0 62 -73zM185 70q0 -36 -21 -56t-51 -20q-29 0 -48 19q-22 22 -22 60h21q7 -58 51 -58q18 0 31 12q17 15 17 40q-1 6 -1 9
q-2 20 -57 43t-55 68q0 9 2 24t19.5 27.5t42.5 12.5q26 0 46 -16t20 -44h-24q0 19 -14.5 31.5t-33.5 12.5q-16 0 -26 -10t-10 -31q-4 -39 54.5 -62t58.5 -62zM751 107q0 34 -8.5 47t-23.5 13q-17 0 -25.5 -13.5t-8.5 -46.5h66zM310 91q0 38 -7 55q-10 24 -36 24
q-20 0 -27.5 -21.5t-7.5 -41.5q0 -47 2 -58q7 -39 33 -39q23 0 33 25t10 56z" />
    <glyph glyph-name="florin" unicode="&#x192;" 
d="M679 659q0 -32 -25.5 -59.5t-58.5 -27.5q-23 0 -39 14q-41 36 -49 37t-20 -14.5t-16 -32.5l-23 -117h149l-15 -62h-142l-78 -413q-14 -95 -85.5 -147t-173.5 -52q-62 0 -100 18q-46 22 -46 67q0 25 23.5 50.5t60.5 25.5q43 0 61.5 -30.5t43.5 -30.5q18 0 31.5 20t19.5 71
l71 421h-118l15 62h111q35 149 98 210.5t176 61.5q68 0 101 -22q28 -19 28 -50z" />
    <glyph glyph-name="guillemotleft" unicode="&#xab;" horiz-adv-x="394" 
d="M362 124l-63 -31l-102 180l102 178l55 -31l-47 -147zM189 124l-63 -31l-102 180l110 178l55 -31l-55 -147z" />
    <glyph glyph-name="guillemotright" unicode="&#xbb;" horiz-adv-x="394" 
d="M370 287l-118 -194l-55 39l63 155l-63 149l63 23zM197 287l-110 -194l-56 39l56 155l-56 149l63 23z" />
    <glyph glyph-name="ellipsis" unicode="&#x2026;" horiz-adv-x="999" 
d="M929 78q0 -38 -25 -66t-70 -28q-46 0 -72 28t-26 65q0 34 30 64t68 30t66.5 -28.5t28.5 -64.5zM590 75q0 -37 -25 -64t-70 -27t-71 29t-26 67q0 34 29.5 62.5t67.5 28.5t66.5 -30.5t28.5 -65.5zM256 72q0 -38 -21 -61q-24 -27 -70 -27q-47 0 -72.5 27.5t-25.5 66.5
q0 37 24 65t66 28q47 0 73 -29.5t26 -69.5z" />
    <glyph glyph-name="nonbreakingspace" unicode="&#xa0;" horiz-adv-x="499" 
 />
    <glyph glyph-name="Agrave" unicode="&#xc0;" horiz-adv-x="716" 
 />
    <glyph glyph-name="Atilde" unicode="&#xc3;" horiz-adv-x="716" 
 />
    <glyph glyph-name="Otilde" unicode="&#xd5;" horiz-adv-x="794" 
 />
    <glyph glyph-name="OE" unicode="&#x152;" horiz-adv-x="1212" 
 />
    <glyph glyph-name="oe" unicode="&#x153;" horiz-adv-x="936" 
 />
    <glyph glyph-name="endash" unicode="&#x2013;" horiz-adv-x="495" 
d="M574 311l-40 -94h-503l40 94h503z" />
    <glyph glyph-name="emdash" unicode="&#x2014;" horiz-adv-x="999" 
d="M1038 311l-55 -109h-1014l55 109h1014z" />
    <glyph glyph-name="quotedblleft" unicode="&#x201c;" horiz-adv-x="534" 
d="M464 510q0 -30 -20 -56t-50 -26q-44 0 -70.5 28.5t-26.5 71.5q0 45 24 86q28 47 81 78l46 -46q-20 -20 -29 -30.5t-25 -31.5q32 0 51 -22t19 -52zM254 510q0 -33 -21.5 -57.5t-59.5 -24.5t-64 29t-26 74q0 42 25.5 83.5t80.5 77.5l47 -46q-17 -18 -27 -29
q-16 -18 -28 -33q35 0 54 -21.5t19 -52.5z" />
    <glyph glyph-name="quotedblright" unicode="&#x201d;" horiz-adv-x="534" 
d="M449 603q0 -45 -26 -92t-77 -83l-47 46q12 12 24 28q16 23 23 34q-29 0 -45.5 22t-16.5 53q0 34 19 55q23 26 67 26q38 0 58.5 -24t20.5 -65zM238 595q0 -48 -24 -90q-28 -48 -80 -77l-40 46q12 12 24 28q16 23 24 34q-33 0 -52 22t-19 52q0 34 21 56q25 26 73 26
q34 0 53.5 -27.5t19.5 -69.5z" />
    <glyph glyph-name="quoteleft" unicode="&#x2018;" horiz-adv-x="315" 
d="M241 502q0 -30 -19.5 -56t-48.5 -26q-41 0 -69 29t-28 71q0 46 24 86q28 46 81 78l47 -46q-23 -22 -33 -31q-17 -16 -22 -31q32 0 50 -22t18 -52z" />
    <glyph glyph-name="quoteright" unicode="&#x2019;" horiz-adv-x="315" 
d="M240 601q0 -44 -29.5 -90.5t-76.5 -74.5l-47 46l55 54q-34 4 -52 25t-18 47q0 34 22 60t56 26q41 0 65.5 -27.5t24.5 -65.5z" />
    <glyph glyph-name="divide" unicode="&#xf7;" horiz-adv-x="495" 
d="M353 441q0 -33 -27.5 -61.5t-64.5 -28.5q-39 0 -66.5 27.5t-27.5 63.5q0 39 24.5 67.5t69.5 28.5q41 0 68 -31q24 -28 24 -66zM495 320l-36 -86h-446l35 86h447zM356 102q0 -33 -27.5 -61.5t-64.5 -28.5q-39 0 -66.5 27.5t-27.5 63.5q0 39 24.5 67.5t69.5 28.5
q41 0 68 -31q24 -28 24 -66z" />
    <glyph glyph-name="ydieresis" unicode="&#xff;" horiz-adv-x="613" 
 />
    <glyph glyph-name="Ydieresis" unicode="&#x178;" horiz-adv-x="575" 
 />
    <glyph glyph-name="fraction" unicode="&#x2215;" horiz-adv-x="284" 
d="M488 800l-554 -804h-144l554 804h144z" />
    <glyph glyph-name="currency" unicode="&#xa4;" horiz-adv-x="597" 
d="M558 163l-79 -77l-47 46q-23 -20 -55.5 -30t-71.5 -10q-78 0 -140 40l-47 -46l-79 77l48 47q-39 59 -39 124q0 32 10 65.5t29 66.5l-48 48l79 77l47 -47q53 41 130 41q36 0 70 -10.5t59 -30.5l47 47l79 -77l-39 -48q18 -27 28 -59.5t10 -67.5q0 -33 -9 -65.5t-29 -63.5z
M419 334q0 53 -29 86q-34 39 -99 39q-55 0 -85 -38q-26 -33 -26 -83q0 -49 29 -83q33 -38 90 -38t88.5 34.5t31.5 82.5z" />
    <glyph glyph-name="guilsinglleft" unicode="&#x2039;" horiz-adv-x="213" 
d="M189 124l-47 -31l-111 187l103 171l55 -31l-47 -140z" />
    <glyph glyph-name="guilsinglright" unicode="&#x203a;" horiz-adv-x="213" 
d="M189 280l-102 -187l-56 39l48 155l-48 133l56 39z" />
    <glyph glyph-name="fi" unicode="&#xf001;" horiz-adv-x="763" 
d="M716 0h-700v86q44 0 65 15t21 54v249h-78v102h78l-1 35q0 89 56 137q72 62 237 62q96 0 165.5 -39t69.5 -102q-8 -33 -32.5 -49t-57.5 -16q-74 0 -100.5 55.5t-87.5 55.5q-33 0 -54 -16.5t-21 -52.5v-70h361v-351q0 -26 17 -45q22 -24 62 -24v-86zM456 132v210
q0 39 -7 48q-11 14 -55 14h-118v-264q0 -27 27 -41.5t64 -14.5q36 0 62.5 13t26.5 35z" />
    <glyph glyph-name="fl" unicode="&#xf002;" horiz-adv-x="739" 
d="M708 0h-692v86l58 8q28 11 28 61v257h-78v94h78q0 112 60 169q69 65 224 65q30 0 138 -16q61 -9 105 -9v-560q0 -46 24 -60q15 -9 55 -9v-86zM456 140v436q0 30 -27.5 47t-65.5 17t-66.5 -17t-28.5 -47v-70h78v-94h-78v-272q0 -30 24.5 -46t59.5 -16q40 0 72 17.5
t32 44.5z" />
    <glyph glyph-name="daggerdbl" unicode="&#x2021;" horiz-adv-x="378" 
d="M378 132q0 -30 -15.5 -43t-43.5 -13q-22 0 -46.5 6.5t-52.5 18.5q11 -51 16 -79q16 -85 16 -112q0 -31 -16 -53.5t-46 -22.5q-26 0 -46 18t-20 49q0 5 20 102q6 32 21 98q-32 -13 -57 -19t-48 -6q-28 0 -44 13t-16 43q0 28 14 40.5t39 12.5q22 0 50.5 -8t61.5 -22
q0 27 -11.5 57.5t-35.5 60.5q22 34 26 45q8 20 13 63q-29 -12 -52.5 -17.5t-44.5 -5.5q-28 0 -44 13t-16 41t14.5 39.5t42.5 11.5q24 0 60 -9q4 -1 40 -11q-10 55 -14 83q-15 90 -15 99q0 26 18 46t41 20q27 0 47 -15t20 -40q0 -18 -17 -107q-5 -29 -17 -86q35 10 60.5 16
t44.5 6q25 0 39 -12t14 -41t-14.5 -41t-41.5 -12q-23 0 -47 5.5t-55 16.5q6 -37 24 -69q4 -8 24 -39q-23 -28 -32 -53t-16 -65q27 14 53.5 22t49.5 8q26 0 40.5 -12t14.5 -41z" />
    <glyph glyph-name="periodcentered" unicode="&#xb7;" horiz-adv-x="291" 
d="M263 262q0 -38 -25.5 -64.5t-72.5 -26.5q-44 0 -69 28t-25 66t24.5 65.5t69.5 27.5q46 0 72 -29t26 -67z" />
    <glyph glyph-name="periodcentered" unicode="&#x2219;" horiz-adv-x="291" 
d="M263 262q0 -38 -25.5 -64.5t-72.5 -26.5q-44 0 -69 28t-25 66t24.5 65.5t69.5 27.5q46 0 72 -29t26 -67z" />
    <glyph glyph-name="quotesinglbase" unicode="&#x201a;" horiz-adv-x="333" 
d="M246 58q0 -49 -27 -97q-30 -52 -77 -78l-48 47q22 16 34 31q3 3 22 31q-35 6 -54 28t-19 50q0 32 23 55t65 23q40 0 60.5 -25t20.5 -65z" />
    <glyph glyph-name="quotedblbase" unicode="&#x201e;" horiz-adv-x="534" 
d="M454 53q0 -47 -26 -94.5t-74 -75.5l-47 47q17 17 30 36t17 26q-33 5 -50.5 25.5t-17.5 47.5q0 34 24.5 58.5t67.5 24.5q37 0 56.5 -26t19.5 -69zM246 58q0 -49 -27 -97q-30 -52 -77 -78l-48 47q22 16 34 31q3 3 22 31q-35 6 -54 28t-19 50q0 32 23 55t65 23
q40 0 60.5 -25t20.5 -65z" />
    <glyph glyph-name="perthousand" unicode="&#x2030;" horiz-adv-x="1329" 
d="M1337 210q0 -110 -60 -173q-54 -57 -132 -57q-82 0 -138 57q-63 65 -63 180q0 89 65 150q61 57 137 57q78 0 131 -53q60 -60 60 -161zM926 202q0 -87 -47 -145q-53 -65 -148 -65q-94 0 -150 67q-50 60 -50 148t50 151q56 70 150 70q90 0 145 -71q50 -65 50 -155zM723 677
l-424 -677h-94l424 677h94zM396 480q0 -85 -46 -142q-52 -65 -145 -65q-98 0 -153 64q-49 57 -49 144q0 88 49 150q55 69 145 69q93 0 149 -69q50 -62 50 -151zM1212 195q0 73 -20 114t-48 41q-29 0 -50 -37q-24 -42 -24 -111q0 -73 21 -113t49 -40q29 0 50.5 39.5
t21.5 106.5zM802 205q0 61 -19 107t-52 46q-36 0 -55 -45t-19 -109q0 -61 20 -105.5t54 -44.5q30 0 50.5 46t20.5 105zM270 486q0 58 -17 101t-48 43q-36 0 -55 -43.5t-19 -105.5q0 -61 18.5 -103.5t55.5 -42.5q31 0 48 44t17 107z" />
    <glyph glyph-name="Acircumflex" unicode="&#xc2;" horiz-adv-x="716" 
 />
    <glyph glyph-name="Ecircumflex" unicode="&#xca;" horiz-adv-x="716" 
 />
    <glyph glyph-name="Aacute" unicode="&#xc1;" horiz-adv-x="716" 
 />
    <glyph glyph-name="Edieresis" unicode="&#xcb;" horiz-adv-x="716" 
 />
    <glyph glyph-name="Egrave" unicode="&#xc8;" horiz-adv-x="716" 
 />
    <glyph glyph-name="Iacute" unicode="&#xcd;" horiz-adv-x="394" 
 />
    <glyph glyph-name="Icircumflex" unicode="&#xce;" horiz-adv-x="394" 
 />
    <glyph glyph-name="Idieresis" unicode="&#xcf;" horiz-adv-x="394" 
 />
    <glyph glyph-name="Igrave" unicode="&#xcc;" horiz-adv-x="394" 
 />
    <glyph glyph-name="Oacute" unicode="&#xd3;" horiz-adv-x="794" 
 />
    <glyph glyph-name="Ocircumflex" unicode="&#xd4;" horiz-adv-x="794" 
 />
    <glyph glyph-name="apple" unicode="&#xf000;" horiz-adv-x="1000" 
 />
    <glyph glyph-name="Ograve" unicode="&#xd2;" horiz-adv-x="794" 
 />
    <glyph glyph-name="Uacute" unicode="&#xda;" horiz-adv-x="731" 
 />
    <glyph glyph-name="Ucircumflex" unicode="&#xdb;" horiz-adv-x="731" 
 />
    <glyph glyph-name="Ugrave" unicode="&#xd9;" horiz-adv-x="731" 
 />
    <glyph glyph-name="dotlessi" unicode="&#x131;" horiz-adv-x="402" 
 />
    <glyph glyph-name="circumflex" unicode="&#x2c6;" horiz-adv-x="424" 
 />
    <glyph glyph-name="tilde" unicode="&#x2dc;" horiz-adv-x="440" 
 />
    <glyph glyph-name="macron" unicode="&#xaf;" horiz-adv-x="495" 
 />
    <glyph glyph-name="breve" unicode="&#x2d8;" horiz-adv-x="440" 
 />
    <glyph glyph-name="dotaccent" unicode="&#x2d9;" horiz-adv-x="1000" 
 />
    <glyph glyph-name="ring" unicode="&#x2da;" horiz-adv-x="339" 
 />
    <glyph glyph-name="cedilla" unicode="&#xb8;" horiz-adv-x="315" 
 />
    <glyph glyph-name="hungarumlaut" unicode="&#x2ba;" horiz-adv-x="1000" 
 />
    <glyph glyph-name="ogonek" unicode="&#x2db;" horiz-adv-x="1000" 
 />
    <glyph glyph-name="caron" unicode="&#x2c7;" horiz-adv-x="424" 
 />
    <glyph glyph-name="Lslash" unicode="&#x141;" horiz-adv-x="637" 
 />
    <glyph glyph-name="lslash" unicode="&#x142;" horiz-adv-x="339" 
 />
    <glyph glyph-name="Scaron" unicode="&#x160;" horiz-adv-x="522" 
 />
    <glyph glyph-name="scaron" unicode="&#x161;" horiz-adv-x="367" 
 />
    <glyph glyph-name="Zcaron" unicode="&#x17d;" horiz-adv-x="637" 
 />
    <glyph glyph-name="zcaron" unicode="&#x17e;" horiz-adv-x="558" 
 />
    <glyph glyph-name="brokenbar" unicode="&#xa6;" horiz-adv-x="597" 
d="M354 0h-118v723h118v-723z" />
    <glyph glyph-name="Eth" unicode="&#xd0;" horiz-adv-x="779" 
 />
    <glyph glyph-name="eth" unicode="&#xf0;" 
 />
    <glyph glyph-name="Yacute" unicode="&#xdd;" horiz-adv-x="575" 
 />
    <glyph glyph-name="yacute" unicode="&#xfd;" horiz-adv-x="613" 
 />
    <glyph glyph-name="Thorn" unicode="&#xde;" horiz-adv-x="1000" 
 />
    <glyph glyph-name="thorn" unicode="&#xfe;" horiz-adv-x="1000" 
 />
    <glyph glyph-name="minus" unicode="&#xad;" horiz-adv-x="495" 
d="M492 311l-36 -86h-446l35 86h447z" />
    <glyph glyph-name="multiply" unicode="&#xd7;" horiz-adv-x="597" 
d="M524 393l-139 -139l138 -137l-83 -84l-138 138l-139 -139l-82 82l139 139l-138 138l84 83l137 -138l139 139z" />
    <glyph glyph-name="onesuperior" unicode="&#xb9;" 
d="M412 288h-279v49q41 0 54 3q28 7 28 28v223q0 9 -12.5 12t-33.5 3q-9 0 -18 -0.5t-18 -0.5v54q47 0 79.5 3.5t83.5 14.5h34v-300q0 -26 13 -33t47 -7h22v-49z" />
    <glyph glyph-name="twosuperior" unicode="&#xb2;" horiz-adv-x="426" 
d="M333 437l-35 -116h-251l-8 59q74 52 113 91q62 62 62 114q0 27 -15.5 42.5t-37.5 15.5q-21 0 -35.5 -8t-14.5 -21q0 -6 7.5 -17t7.5 -25q0 -16 -11.5 -27.5t-28.5 -11.5q-19 0 -30 11q-15 15 -15 46q0 47 40.5 75t97.5 28q60 0 99 -33t39 -73q0 -51 -53 -106
q-49 -51 -118 -81h89q19 0 31.5 11t23.5 39z" />
    <glyph glyph-name="threesuperior" unicode="&#xb3;" 
d="M336 435q0 -47 -44 -85t-113 -38q-61 0 -101 22q-47 26 -47 73q0 20 14 35t30 15q17 0 30.5 -11.5t13.5 -28.5q-4 -14 -4 -22q0 -10 17 -19t39 -9q24 0 42.5 14.5t18.5 42.5q0 29 -14 45q-19 22 -64 22l-23 -1v49q44 0 66.5 11.5t22.5 38.5q0 24 -14.5 36.5t-36.5 12.5
q-19 0 -33.5 -7.5t-14.5 -17.5q0 -4 5 -14t5 -16q0 -17 -13 -28t-31 -11q-19 0 -33 14t-14 35q0 40 41.5 70t101.5 30q51 0 93.5 -28t42.5 -70q0 -27 -15 -49t-36 -27q34 -12 51 -34.5t17 -49.5z" />
    <glyph glyph-name="onehalf" unicode="&#xbd;" horiz-adv-x="1005" 
d="M334 291h-279v49q41 0 54 3q28 7 28 28v223q0 9 -12.5 12t-33.5 3q-9 0 -18 -0.5t-18 -0.5v54q47 0 79.5 3.5t83.5 14.5h34v-300q0 -26 13 -33t47 -7h22v-49zM912 119l-35 -116h-251l-8 59q74 52 113 91q62 62 62 114q0 27 -15.5 42.5t-37.5 15.5q-21 0 -35.5 -8
t-14.5 -21q0 -6 7.5 -17t7.5 -25q0 -16 -11.5 -27.5t-28.5 -11.5q-19 0 -30 11q-15 15 -15 46q0 47 40.5 75t97.5 28q60 0 99 -33t39 -73q0 -51 -53 -106q-49 -51 -118 -81h89q19 0 31.5 11t23.5 39zM881 803l-554 -804h-144l554 804h144z" />
    <glyph glyph-name="onequarter" unicode="&#xbc;" horiz-adv-x="954" 
d="M328 315h-279v49q41 0 54 3q28 7 28 28v223q0 9 -12.5 12t-33.5 3q-9 0 -18 -0.5t-18 -0.5v54q47 0 79.5 3.5t83.5 14.5h34v-300q0 -26 13 -33t47 -7h22v-49zM819 152l-22 -58h-54q0 -29 11 -36t35 -7v-48h-180v48q27 0 35 6q12 9 12 37h-152l-20 44l175 245h84v-231h76z
M656 152v140l-93 -140h93zM848 797l-554 -804h-144l554 804h144z" />
    <glyph glyph-name="threequarters" unicode="&#xbe;" horiz-adv-x="972" 
d="M336 435q0 -47 -44 -85t-113 -38q-61 0 -101 22q-47 26 -47 73q0 20 14 35t30 15q17 0 30.5 -11.5t13.5 -28.5q-4 -14 -4 -22q0 -10 17 -19t39 -9q24 0 42.5 14.5t18.5 42.5q0 29 -14 45q-19 22 -64 22l-23 -1v49q44 0 66.5 11.5t22.5 38.5q0 24 -14.5 36.5t-36.5 12.5
q-19 0 -33.5 -7.5t-14.5 -17.5q0 -4 5 -14t5 -16q0 -17 -13 -28t-31 -11q-19 0 -33 14t-14 35q0 40 41.5 70t101.5 30q51 0 93.5 -28t42.5 -70q0 -27 -15 -49t-36 -27q34 -12 51 -34.5t17 -49.5zM900 149l-21 -58h-54q0 -30 13 -39q9 -6 33 -6v-49h-178v49q25 0 35.5 8
t10.5 37h-150l-21 44l175 251h82v-237h75zM739 149v143l-92 -143h92zM872 800l-554 -804h-144l554 804h144z" />
    </font>
</defs>
</svg>
